<mxfile host="drawio-plugin" agent="Mozilla/5.0 (X11; Linux x86_64) AppleWebKit/537.36 (KHTML, like Gecko) Chrome/122.0.0.0 Safari/537.36" modified="2025-08-23T23:44:57.710Z" version="22.1.22" etag="YjHkebZBuVFxQgC735fx" type="embed">
  <diagram name="PÃ¡gina-1" id="eUnl6zwdRTgma-Q4W-Iu">
    <mxGraphModel dx="913" dy="561" grid="0" gridSize="10" guides="1" tooltips="1" connect="1" arrows="1" fold="1" page="0" pageScale="1" pageWidth="827" pageHeight="1169" background="none" math="0" shadow="1">
      <root>
        <mxCell id="0" />
        <mxCell id="1" parent="0" />
        <mxCell id="4" value="" style="edgeStyle=orthogonalEdgeStyle;rounded=0;orthogonalLoop=1;jettySize=auto;html=1;" edge="1" parent="1" source="2" target="3">
          <mxGeometry relative="1" as="geometry" />
        </mxCell>
        <mxCell id="2" value="queue: create-order" style="rounded=1;whiteSpace=wrap;html=1;" vertex="1" parent="1">
          <mxGeometry x="115" y="114" width="226" height="60" as="geometry" />
        </mxCell>
        <mxCell id="6" value="" style="edgeStyle=orthogonalEdgeStyle;rounded=0;orthogonalLoop=1;jettySize=auto;html=1;" edge="1" parent="1" source="3" target="5">
          <mxGeometry relative="1" as="geometry" />
        </mxCell>
        <mxCell id="12" value="" style="edgeStyle=orthogonalEdgeStyle;rounded=0;orthogonalLoop=1;jettySize=auto;html=1;" edge="1" parent="1" source="3" target="11">
          <mxGeometry relative="1" as="geometry" />
        </mxCell>
        <mxCell id="3" value="CREATED" style="rounded=1;whiteSpace=wrap;html=1;" vertex="1" parent="1">
          <mxGeometry x="115" y="205" width="227" height="60" as="geometry" />
        </mxCell>
        <mxCell id="8" value="" style="edgeStyle=orthogonalEdgeStyle;rounded=0;orthogonalLoop=1;jettySize=auto;html=1;" edge="1" parent="1" source="5" target="7">
          <mxGeometry relative="1" as="geometry" />
        </mxCell>
        <mxCell id="5" value="REQUIRED_FIELDS_VALIDATING" style="rounded=1;whiteSpace=wrap;html=1;" vertex="1" parent="1">
          <mxGeometry x="115" y="295" width="227" height="60" as="geometry" />
        </mxCell>
        <mxCell id="JiwbBwWRxK0QIEpj-EfJ-14" value="" style="shape=image;verticalLabelPosition=bottom;labelBackgroundColor=default;verticalAlign=top;aspect=fixed;imageAspect=0;image=data:image/png,iVBORw0KGgoAAAANSUhEUgAAAP0AAAECCAYAAAA1htGEAAAABHNCSVQICAgIfAhkiAAAABl0RVh0U29mdHdhcmUAZ25vbWUtc2NyZWVuc2hvdO8Dvz4AAAAmdEVYdENyZWF0aW9uIFRpbWUAc+FiIDIzIGFnbyAyMDI1IDExOjIwOjE30oSUFwAAIABJREFUeJzt3XmclMWdx/FPVT3dMz0nDJcghyKiAoLiAYInolG8DW6UqNGNSTarRrMxcc2d3WSN0Y1JNJvVRIOu0RiPeCsinojiFQ9E8cAL5WaYYc5+jto/ntaggaFn+unj6f69Xy9eeWVsqouZ+XY9z1NVv1LNzc2WzfTr149sbdy4MavXSZvSprRZOm3qrFsRQpQFZa391Eif7acOZP/JI21Km9Jm6bQpI70QFUZCL0SFcYrdAVFA1oL1M/9rQanMH1PsnokCktCXJQu+B14au8kFtxPcLuhuJ1j/PnRtwvouyiSguh49YCSqO4BEFSRSWKcanCQYB1DF/seIiEnoy4nvgtcNbhdm+SL0K3eTXr0U2jdgO1vC4H/6uW1IKaqcamx1PdT0Jxi2O8Hux+CPngaJanCqwCQK/+8ReSGhjz0bhj3diXn1fsxzN6FWLkF1NIO1bCHiW2jCgtuJcjth0xrM6mWYF2/DqemPHToBf+9T8McfCcmUhL8MSOhjy0IQoDqaMQuvxrxwM6p5BdggouYtqn0D6q3H0W8vxOk/HH/yF/D3/yo01IM2yKV/PEnoY0p1t2Oe+iPm0StQ7eu2fNkeFRugNryPs+AyzNNz8Y78Ns5B/wLV9fl7T5E3MmUXN93tmCX3kPzVwTj3/yeqLc+B35y1qLZ1eLd/j+7/3Ivghb9Cd3th3ltERsna+5i06afRHy3Buf+n6HcXg9cFQUSX8n2hNCSqCXaYgnfk9wmGTQCT/NRLSvr7WcFtyuV9qbMBqnU1zvxL0C/fhepuCx/cFZsNIN2Bfnshid/PJph4LN5hF2IbhoQfCKJkSehLmGrfgHn2BsxTc1GtK8HthuyexxeO76I6NmKevxn95uP4+52Bv8+p2NqmYvdMbIWEvhR1t2HeeBTz2JXola9CuiO6p/J5YcHtQm14D2f+pegl9+MfdDbsezxU1RW7c+IzJPQlw4KXRn/4EmbhVZjXH4LuNgj8YncsezaA7jb0+8+i/3IO7uv3YWacix41OVzhJ1N8JUFCXwp8F7vuXZxHf4955gZU65pwjXxcBT50tuA/+xeCZY9jDvgyZuqpqIE7yOKeEiChLybfw3Y0E7z6IN69P8NZ/Ua8RvZtCXzsxg/x7v0ZwXO3Yo7+HnrcYaia/pl1/aIY5DtfDIEfbn5ZuRTvxnMJViwJp+DKVeATrFxKMPfL6O13x5nzG9TQcaiq2szKPlFIEvpCsha8LmzLKry/fh//5Xuhs6XYvSoct4vg3WdJX34EZuJROCf8FNW4HTjVxe5ZRZHQF4rvYrvb8Of/Cn/htdjmDym56bdC6WzBX3wTwRvh/b4z87xwK7Dc7xeEhD7fbABeGv+5W/EeuAS78rXyum/vM4ttXoF3z0/xn78dc9A5+BOPC4Mvi3vySgpj5rnN1pfm48y7GP32wtJYSVeqTAK9y8E4x/8HevTUrb4sLj/3Um5TRvp8sBa74T28+35OctH1YWGLkl5cUwJ8l+C1BaTfehIz7XScI/8d1TQyLOclIiWhj5K10NGMt+g6/PsuxnZsDO9VK/XevbdsAOlO/CeuIXj+NpyjvovZ73So6S/hj5CEPird7QTLn8a9/mvYlpWQ7kTC3hdhJSC7aR3u7d/De/i3JE67Cj16ClTVFrtzZUFCnyu3C7tqGe6fzyf44EXobJVL+UhYSHdg1y7H/d3nUSP3wPnCr6B6SFi3T/SZhL6vfBe74QO8B39J8OKd2NbV8qAuH2yA7diIffNJ3N8cTWLcEXgHnYNtHCZTfH0koe8tG6DaN+A/+0e8hX/ErnkrLDEt8st3sc0rMM/cgF6+CG+fUwkmnxRu4ZUpvl6R0PdGZwt6+ZM4T/wv7gd/g3R74UpViZDbhVr5Gol5PyNY+gDeAf+CHT0Nm2osds9iQ0KfDbcLvXoZZtEfMC/fFW55lfv2IrLQ3Y5+eyHJFS/iTzwWf/pZBIN3kfv9LEjotyo8JUa1rsb87RbMY1eiOlriveW13NgAuloxz96EfvV+/IPOwZ88G1s/RHbx9UAKY26pzcCDrjaC1xbg3vod7Lp35DI+DpRCDRyNc9Iv0LvOoKXLA73t8Mfu9zPHNuXjcHM2CHeCrVqGd9N5BMuflifycWItdu3buFedjB49FX3MzwgGjQmP5ZKHfZ+Q0MMnp7nade+EG0Ceu0XquceZ7xK8+QTJK4/An3QC3swLsP2Hh6fzyso+CT1YVGcL5qlrSS/6Q7iaTpSHdAfm2T+hly3A3/+rePudCalGKr1WX2WH3ncxS+7BPPgL9Nq3sPKQriypTatxHvgv9Au34B/2HfwJR1X0wp7KvNGxAfq9Z0lefSKJm89Br3kjfHgnD+vKk7UQeOjVy0jcfDbJ389Gv/9cxU67VthIb1EtH4W12V+6MzwtJvCK3SlRKJldfPqdRSR+fxLBpBPwDrsA+lXWJX9lhN4GqK5NmMXXYxZehWpbGz6Vl5G9AmXWX3S1YJ67Ef36g3iHfRPngLMgVV8RT/nLO/TWYrvb0UvuxXnkN+hVr4VLZ4WwFrxu1MYP8e76McHzt+IceSF6t5nhFt4yfspfvqFPdxB8uARv3mUkli5AdTQj+9vFFnW3ESxfjHvdWehdD8UccQF62HhI1hS7Z3lRfqH3urHr38N/ci7+ouuwratRUohSbJPFtq3Hf+F2grcWYqafiZn2JdSAkeHinjJSPoUxAx/Vvh792nycx69ErXsnrE0nRF84VdiBo/EOOptg18OwtQNAm9L6ne9jm/Ef6a2F7k3oVa/j3PND9EevhKe8CpELrxu16jUSf/0OwfYT8Y76CcF2u4JtjP39frxD73ah2tbg3P1DzLIFsr9dRC/dgX53Mcnfz8bfdSZ2zuWohsGQSBW7Z30Ww9Bnplw6W8IjnRddg2pbV7ELLUQBZK4mzct3kn7nKcyMszEzzgnP4jMOcZvjj9ekZBBAdwf+87eSvOJwnAd/jtq0RgIvCsMG2NZVeHf+kPTF0wheuD28lYzZ719MRvpwdA/eex7vzh8RLJ2Pkst4USzWYle+RvrqU9DjP4dz7I/RoybHZtQv/dBn9kh78y/HX3gteGm5bxelwVqCVx8kvewxzP7/jHP4N1EDR5f8g76SDr1tXY3/9I3498tpMaJEZQqv+I9fTfD8LTizLkLvOwdIFrtnW1WS8/S2u51g2SN4t1yIXf8OuHIWnIgBpSFRhRq4I91H/ohgp/2zWtVX2fP0vodd+Tru9V8hWPFKWL1GdsGJuMjs4rOr3iDxp69gh03Anf1r7MAdsqrVVyilURjTWuz6d/HuuxjvxbtR7eulNp2IP5NA1Q9CTzomPIV3wKgt3u9XVmFMG2DbNxA8ORdv0XXY1W+ivDRy3y7Kgu9iN67Ef3Iu9q1FmOlnoKd9CVXbv6hbeIsTepuZb186H//hKwmWPwXpLiTsovyEW3iDD5cQ3PED9Cv34cw4Bz1uZni/X4TwFz70Xjq8lH/oN/jP3AjtzQXvghCFF57CG7y2APf9v2GmzMEc+o3wkr/AChj68Cii4M2FuH86G7v+PZAtr6IC2fYNeI/+Dv+V+0l88UoYtDtU1VCohT2FubawFjpb8R67GvfqOdi1yyXworIFfngwx9VzcJ6eC12bCrboLP8jvbXQ2YJ720X4T10v216F2IztaMaZ91+odW/jzvoRVDfkfUVfnkd6C91tuDeeg//kHyXwQmxJ5lCOxO3fDk9EzvMD7fyO9G43iTsuxH/xdqliI0RPvDTmlTtBG9zZl+f1yO38jfSBjzP/F5iX7pDAC5ENL415+U6ceRfn9ZlX3kJvXr4LZ9E14Hbl6y2EKD9uF87TczEv/TVvb5GXDTf2o6WkLz0Y27ZeNsoI0VtKo2qbSH77EdT2Ez75clQbbqIf6X0X9y/fCrfCSuCF6D0bYDtbcP98flg/ImLRht4G+M/8meCNxzN734UQfeJ7BG8vwl/8p8gHz+hCby22sxXvvosz9/Gyjl6IvrPgduPdlykgE+HCnehCH3jhiTKr35DLeiGiYAPs2uVhmbgI60pEE3prId2J/8Q1YcVaIUQ0giAMfXd0ZzpEE/rAw186H/vRq8hlvRBRsthVrxO8cl9ko300ofe6w08juawXInrW4i26LrIn+bkvw7UW63Zh33kmgu6UAaUyhRFUZuOEzVz82PBDsdjlu/+hfxD27eM/8sFdioJ3nkG5ndhkTc4bcnIPfeARLHsU27Yu56ZiSenwkAPtgDao2iZUv+2hpl/mvDMbzmZ0NGNbV4ULlnw/vFQLvPxvMVYaTAK0CftX0x/VOBRqm8L13VqD2wldbdjWNdjWVWF9wsAPp12lMGlp6NiIXrYAf48Tw59nDpzPrvLpdfG97nYST/4Jk1M34kiB1qhBozH7nY7e5WDU0N1QdQN6/mudrQRr3sQuX4y/+EaCdxaHHwKRPwtRYBzUsPGYqV9Ej5mOGjIWVddEj8Ua0h3Y9e8RvP83ghdux3/pHvDlgJFSULX0XpLT50B1/TZf29PqvZyr4ar2DST/5yjU6tez/ntlIZHCmfkNzBHfRtU0ZXKU7WVX5pLf7cR/5mbcm8+HztZo+1fbhHPMD3EOOCtTi603/SMMeeCFlY6uOyssfCKKSm23C8kLn0DVD9rma3sKfe4P8vxuqLRLe+PgzPp3nGN+kAm8oneljjL308kUZsopJE65Itq66MkaEqf8Gufgr4dlmHrdP8K/YxLonQ8g8fVbIdUYXf9E37SuieRhXo6hD+9XVWf2GwHKgRq0E2balyCR60MVBYkq9J7HocdMi6x/esw09O6zwEmSc90146CHjMVMPCqSvom+s50t0NWa861WbqEPAtT69yruYY858CuohiERlTVSqEQ1Zo9jI2gLUBoz8zxUdUM07QE4SfSex0fXnugbGxCsWpZz3nIMvY/a8G5OTcSOk0TvfEBmFI2IdlC7zoimrWQNqmlU5tjkiGiDHjEpuvZEn0VRVDa30NsA1b4hpyZiJ1mDSjVEe0iB1uhBoyP5IFHJFCqZiqBTmzeqUQ3bEYez18teBDUqcr+nr7Bil8qpAqcq6lbDc89S2c+cbJVJ5DyPu+V2nWivbkSf2HRbke/pLRV3Px8uxMnTqoSqOnIeTZXO31FJMtAXn5/7Yq7inaIXV8rkKVQqmvtwpSJ6wCjKlYS+tz5Zu54HTiKC0bQPc/KiojifXYHXu+J7jbjV1cgBVVGRsIqedae7aW/ZCEm3x9cVtjCmEKKkSeiFqDASeiEqjIReiAojoReiwkjohagwEnohKoyEXogKI6EXosLkVhhzzUqcrq4ISuoKIbJRlayirrEfVNX2+Lr81sgTQsSKhF6ICiOhF6LCSOiFqDASeiEqjIReiAojoReiwkjohagwEnohKoyEXogKI4UxhYgRKYwptixvRXWlWm85kNCXlAhCpTR5+7EaOdaqHEjoS4UimjPotA7/5IOWkb4cSOhLhkJtY7tkVpyq/BxgiQKdj3ZFoUnoS4VSqIbB5HqJr4eMReUj9IrMh5KM9nEnoS8VSqNGTMrt8Eml0Xscm6cjpRWqcahkvgxI6EuFNph9TwkrovQx+KphCHr3WeElftS0Ro3aK3+Hd4qCkZ9gqVAaNWgnEl+4HBI1vQu+UpCswZl9Caq2KT/90w7moK9BVZ0chR1zEvpSohRm+hkkv/0wZt9TUP2HgzZbf702qIE7YvadQ/KCBeGVQl4u7QlvHbYfT/Lcu9G7zoBkTX7eR+SdFMYsNUqjR+2FPuMaCDxs23rshg+goxm8dGZUr4X6Qaim4ahkDWgnDHu+L72VRo+ZRvLcu7FeF3bN29CyCrxurJ8G3wtf53VDEK7TtOkOcLvBT4PbBW4X1u0Ez4V0O9btAt8N/22+C34a67vhf/fTf/9f38V63dDdEbaDze+/tURFURhT8lqKtPlkhFfJ2nDEt5ZPftGVAnRm3rzAl9raQDKFSlajRk4GG/APAbSb/3/7ma/ZzJc2//rmX7NYu5X/Zi3YANu8gmDJA/iLb8KufiP8kBFZk9CXOqVA9XCJXzQq86ET/dXFtj7GVG0TeuiumAPOInjjcbzrv4pt3xB5P8qV3NOL+NEGEilU/UDM7kfizL4kvMURWZHQixhTkEih95qN2n5CsTsTGxJ6EW9KoRJV6J2mFrsnsSGhF/GnDHr4xGL3IjYk9CL+lIaGIcXuRWxI6EX8KVD5WpRUhiT0QlQYCb0QFUYKY4r4s2D9yvgtlMKYQnzMTxe7B7EhoReiwkjoRfwp8lM4pExJ6EVZUPmqAFyG5DslRIWR0AtRYST0QlQYCb0oD1KlN2vynRJlQMnT+16QwpiiPFRIWe4oCmPKSC9EhZFBWvSBBd+HwKPnUtQqvNc2iYoZieNAQi96x1psup3guVsJXn84rMdvtxR8BU4SNWw8ZvqXUAN26PngjlwZ2U+fLQm96AWLXbkU95rTCT54GWwWO9v+dgfeQ78i8fmfYw74cv4euJlSLBNemiT0IjvWYjetJf3bE7Fr3/7kBJss/iJ0bcL9y7egpj9mr8/n5egtuXnInjzIE9kJPPz5v8SuXd6LwG/G7cK784fYrtbo+yZ6RUIvshP4+C/dk90l/VbY9e9im1f07UNjW2RxTtbkOyWyYwPs+ve28tAuS76HXZHls4DeUAqMLM7JloReZC/ouURTVnwvPwfOypRg1iT0orASMiIXmxTGFAWlZKFOTqQwpoifkjx2u7JI6EVhJVLkZVbdyJKTbEnoRS+U8GW5SRS7B7EhoRfZyzlYClINck9fZBJ6kR2lUYPG5BbYZAo1cIf8brwR2yShF9nRBrPXiTmtfNMjJkFVXYSdEn0hoRfZMQ7m0HNRI/fs00itaptwTv4Vqro+D50TvSGhF1lSqOoGkv96G3rXQ7JfZKMUashYEl+7GT1yD7m0LwEyzyGypxSq/3ASX78Nu/5dgmf+jN3wwZbX4ysg1YiecAR6zDRUdaNMq5UIKYwpekdpVKoBNWw8+ugfhJtntraWXoXVc2Q6LTpRFMaUvIq+0QaSqWL34u9kGjBrck8vyoACp7rYnYgNCb0oDzLSZ01CL8pDLsU9KoyEXpQBC25XsTsRGxJ6USZkpM+WhF6ICiOhF6LCSOhFefDSxe5BbEjoRXnwI6jUWyGkMKaIP2uxbmexe1EQUhhTiI/JlF3WJPSiDFhIV8ZIHwUJfW9ZK6u/So212M6WYvciNiT0vWWD8I8oHdZi29YVuxexkXPola6w3bm+C4FX7F6IT7GwaU2xO1EYypBrKfLcQq/0NjfzlxvrdYPXXexuiM0FQVjBpxIka3PeUZhz6FXdwJyaiJ10B7arTe7rS4n1sRtWFLsXBWFr++dUkRhyDb02qEGjc2oidrw09t3nwJcVYKXBYr00ds2bxe5IQdimHXI+DzDH0GvUwB0rrgaat/BabGdrsbshAHwP+8bjlTHSK40dvHPOFYVzK4y5cSOqM00y1YiqoKen9qMlBK89HB7+UGEfeCXFBtjOFrx7/pNK2FqrUo00DB6O6t9/m6/taWVt7lN2Jgl1g3JuJlbSnXh/+Tf8l+4B36MSfuFKiw0Dv/EjvOu/RvDeC8XuUGE0DA6rC+co5/k261QRbLcbZtVrOXcmTmzLStw/nEqwx3HofU9Gj5qM6jcs54csogfWYtvXYz96lWDpQ/gLr8W2rCp2rwpGDd4Zlci9AGjuk+xOFcEeJ2BevD3npmLFhks//eduwf/bHWBMeGRT0yhUbROqqgZ0Irz8l5qNfRP44YNTtwva1mObV2A7msOv+164XqKCFkqZvWeDk+XJQj3IPfTGEOy4H7ZuYEXd14ds+IsXeOCC7W6H1jVYlFRnjVRm6bMNKnaq1FY3onc/MpJnSBEsp1PYRDV25F6opfNyby7OrA1PfBEiYnbEnqhETSSDSTQ3oE4V3r6nyf2sEHmh8Pc+JftDQ7chmpRqQzDmQIKh45EbWCGipLCDxxCMOxwi2ucS0dCsIJHCn3IaaBnthYiM1vj7fBEbwZr7T5qMpBUIR/u9TsYOHiuX+UJEQWls06jMYBrdbtbo0qkUtqoWb8a/ZaYV5DJfiJw4SbxDzsOm+kU6G6Ss/fQcSO8KY25hya7v4f7PifhLHpAKpUL0lXHQO+9P8vx5n6zCyzmbGdFfhxsH56RLURFsARSiIimNSvXDOfnXkSy7/ay8pFJttwuJU3+HSjXIIhUhekVBdR3OF36JHj4xL++Qt6FY73k85tBvQCKVr7cQovwkqnEOOAsz5ZS8vUX+rr+Vxpl1EWbKnEjWCwtR9pwkZvIJOMf/NNKn9Z+V35vuRBWJL/wSf4/PS/CF6ImTxEw+kcSp/wMR7KTrSZ6ftCmoqsM7/mL8qWeERf2EEJ+WTGH2Ox3n1N9BdX3en4Plv361UtiqerwjvkcwaCeceRejOprz/rZCxEKqkcSs72IO+iqkGgoy41WYOTWlsNX1+Pt8Efe0a7GDdsq5zpcQsZZZbZeeczXmkH+FVGPBprgLO5GerCEYPZ30Wbfi7/81bG1TQd9eiFJgU/3wp36J9Fm3EOx8MFTXFXRqWzU3N39qRV5vC2Nm4x/atBbSHQTLHsF7+EqCN54At7NiCySISqAgUY0ePQUz4xzM+MPDg2KU7nuOetBTm8U5k0opqKpF7z6LxE7TCZ7+P/yF1xKsXJY5PUbCL8qFAieJGjwGZ9rp6P3/GVXbVNTVqsU9iE5pVG1/zKHnovc4Hm/epXjP345qWyvr9kX8mQSqbiB691k4R303PCOiBFaolsjpkwo1YCSJky+nY98zSdz6TfSHL0F3uxwWKeJHG6iqQw8bT+KMP6AGjymp8xFKJPQZ2sEOHE36y39GL38K554foNe9E17yV1DVUxFTSoOTxPYfSfKffoHe7VBUVV2xe/UPSiv0H0ukCHaZgTt8EvrFv+I8dBmqY4McLCFKl0lgqxvwZ5yPP/mfSI0YW+webVVphj7D1g7An/5lgt0OxzzxvzhPz5VRX5QWpcAk8feZg3fQ2dgBo0vivr0nJR36kMI2jcA75j/w9/onEvN+jn59vgRfFJ9SBGMOwvvcRQQj9gTjEIeKUTEIPYAK7/e3n0j6tGvRrz9E1YJLsR+9KnP7ovCUwg4cg3fYBfgTjg43yMSoYExMQp+hNCRTBONnUbXPcXiP/g7/od9gW1fLyC/yT+nwlnO/M/EP/HpYoTYmo/vm4hV6AFT4jU414sw8DzPli3i3X4T/4t3QvUlGfhE9pVBVdehxh9FxxI+w9YNiXRwm+sKYW5DXNq2F7jb0mmU49/4Y/cGLkG7P+v2E6FGyhmDoBLyjf0IwdBz9hozI6kFdKecohiP9ZygF1fUEw/fEPW0u+vWHMI9diV77VmZJrxB94FRhB+yAd+DZBOM+F24O007JP5nPRvxD/zFtsHUD8fc4kWCHKZjnbsI8+yfUpjWyqk9kTxts3SD8vU8OT5bpP6Lsqj6VT+g/5iSxA3fEO/Sb+LsfhfPoFThvPoZtXy/3+2LrlMKm+hGMORD/4HMJho6L9X17T8ov9B9LpLDDJuKe9GtSK1/Au+/nBCteDtfzy6o+sblkDXa73fAOPhd/l0PDsm5lcBm/NeUbegh/cMla9MSjSI49EO/JufgP/jKc4vPTMvJXssxKOtUwGHe/L+NPPQNbXR+r+fa+Ku/Qf0zpzBTfNzB7z8a792L8Z26Crk2ynr8SGQdVVY/e6/M4x/yATl1P3Obac1H+H2ufolD9ticx5wqS5z+A3uVgqKqRen2VQhtI1qB3mkbivHtJnH4VqmkklRR4qJSR/rOUQu+4D8nz7sV/6W68u36CXbkUAl8u+cuRUqANashYnGN+iJl8Apjoz4iLi8oM/cdMAjP5BMxuh+I9dhXu/F+hWlYWu1ciYqphCOaQczCHfD08WLXCRvbPKk5hzFJr01qwPo3BJrx7f4b/zM3Q3ZZ1+6JEJWvwJx6HN/Pb2KYRoMwWn8qX/O9nxG1W2D39VqhwF58aMIrEKVeQvOhJ9NiDSqrEkegFk0DvvD/pf70P98T/xg4YVTar6aJQ2Zf3n5XZxaeHjSN5zh0Eyx7DveUC7Nq35V4/FhRq4A44s3+BHjeTji4vrwdBxpV8R7ZEO1DTiJ44i+SoyQTP/hnvgUux7RvCh32itGgDNf1wDvs3zNRTUY3bgZOAdEuxe1aSJPRbpcISxk0jMDPORe02E//R3+E/dwt0tsr+/VKgNFTXYyafiJlxNnrYuMyJr3IZ3xMJfTYS1eiRe6JOuhQz6Vi8Bb8mePvpcAuvXPYX3scrLXfYBzPzG+hdDkbVZP+Qq9JJ6HtBpRpRE2eR2Gkq7Y/8Af3MDeh1b4PbVeyuVY5ENWrwGMz0MzH7nYaqG1ARS2ejJKHvLaVRdQPxpp2FGj8L8/hvMUvuDbfwyqk8+WMS2LpBOHseh/O5C1BNI2R2pY8k9H1lHGzTSLyjf4I/5XQSd34X9eFLqK5Ncr8fpcx9ezB0At7xF5PaeZ/MfbvoKwl9rpxq7NDxpP/5JvQHL5C45TxU60pIdyEbeXKUSGEbtsOdfTnBqL3DLa8S+JxJ6KOSrCEYPZ30NxZgXrgZM/8yVFeL7OLrtbDwqa1uwJvxTfx95kCqnyysiVD8C2OWYpvWYjd8gPfAJfhPzg0f9Mkl/7YpDYlqzNRTcWZdhBow6h/CXtI/95i0KSN9PqjMKbxf/C2du5+IM++/0G89IQ/6emIS6F0OwjnuP9A77Vfs3pQ1CX2eBSP2JH3mjZiX78J55Neo1a/Lqr7NaYMdPJbkUd/F7D0bnMrd8looEvp8UxqcKvxJx+PvdjjOE/+LWfx/qJaPqOx7fYVtHIq/76l4B36d1ODtZQquQCT0hWISUN2Ad8h5+HufgjPvZ5hXH4Cu1mL3rPCqG/B3OxzvyO9j64eEJaYl8AUjoS8kpSBRje1DlR+gAAAC7UlEQVS3Pe4Jl+FP+wqJOy5ErXy1Mg7mcKqw243DPeESgiG7hFNwUqqs4CT0xaBNuOBkxB6kz/oLetkjOAsuQ619qzzv97XBDtoJ79ALCMYegq3pJ1tei0i+88WknfAU1EnHEYycTO2rd+IvvAbbsqo8wq8Mtn4w/pRT8ff6Arb/SLmMLwES+lJgEtiBO+Ic9V30hCPxH74C/5X7whLdcQy/Nqjqeryxh+Id8DXs9pPC/e2y5bUkSOhLhgKnCr3TVPTwCeilD+HP+2+CFS9Cd0c8FvcoDVU16OGTcA7/Fp3b7wNVdcXulfgMKYxZwm2q9g3oZ27AeXpuuJ7f7aY0p/kUJKqwDUPxp56Bv++p2Nqmkvt+SpshGelLmK1twj/4HILJJ+HMvwT98l2o7rbSWtlnEtiqOoKJx+Id9h1sw3ayv73ESehLndLYxqG4x/8CPeV0nPt/in53MXhdEBTxkj+zTj7YYQrekd8nGDahog+QiBMJfVw4SYIRk0mfcQMNKxbj3nYhdt27RdjFl9kF138k3tE/xh87A5I1BXx/kSsJfdwka9CTT6Bq3Ey8x67Cm3cZbFpTmFp9SkH9YLwDz8bf70ysPKSLJQl9XFXX4Rx2Ps600/EWXIH/9A3Y9e/n5ym/0qgBI8Mtr4eey0bXgJb79riS0MdWeCoPdYNwjv4B5vBvEbx0F/6T1xGseBnaN+T2AaA01Dahh0/ETP8SetKxqGRNuLimRerJx5mEPu6UAieJcpKYfU7G7HkC1u0ieONxghduw3v3BehoDmv3uVsr4aUgWY1KNYZBHzEJPfnz6LEHohLV4YYY2fJaNiT05cRJhh8A1XWYPY7FTPgcHetWg9sJbjcq3Q7NK/4+7ZeZbqP/cOoHbhfWn0ukUMlUZuebg6yiKz8S+rIUns6DSWBrvU++aq2FoeMyD/1s+DqlQBlU//5F660oLAl9JVEKlPzIK50UxpQ2pc0Ka1PmXYSoMBJ6ISqMhF6ICvP/4baPoZsb+boAAAAASUVORK5CYII=;" parent="1" vertex="1">
          <mxGeometry x="298" y="80" width="49.03" height="50" as="geometry" />
        </mxCell>
        <mxCell id="10" value="" style="edgeStyle=orthogonalEdgeStyle;rounded=0;orthogonalLoop=1;jettySize=auto;html=1;" edge="1" parent="1" source="7" target="9">
          <mxGeometry relative="1" as="geometry" />
        </mxCell>
        <mxCell id="7" value="SEND_MAIL" style="rounded=1;whiteSpace=wrap;html=1;" vertex="1" parent="1">
          <mxGeometry x="115" y="379" width="227" height="60" as="geometry" />
        </mxCell>
        <mxCell id="16" style="edgeStyle=orthogonalEdgeStyle;rounded=0;orthogonalLoop=1;jettySize=auto;html=1;entryX=0.5;entryY=1;entryDx=0;entryDy=0;" edge="1" parent="1" source="9" target="13">
          <mxGeometry relative="1" as="geometry" />
        </mxCell>
        <mxCell id="9" value="END_PROCESSING" style="rounded=1;whiteSpace=wrap;html=1;" vertex="1" parent="1">
          <mxGeometry x="115" y="469" width="227" height="60" as="geometry" />
        </mxCell>
        <mxCell id="14" value="" style="edgeStyle=orthogonalEdgeStyle;rounded=0;orthogonalLoop=1;jettySize=auto;html=1;" edge="1" parent="1" source="11" target="13">
          <mxGeometry relative="1" as="geometry" />
        </mxCell>
        <mxCell id="11" value="INVALID_EVENT" style="rounded=1;whiteSpace=wrap;html=1;" vertex="1" parent="1">
          <mxGeometry x="368" y="297" width="227" height="60" as="geometry" />
        </mxCell>
        <mxCell id="13" value="ordersdb" style="whiteSpace=wrap;html=1;rounded=1;" vertex="1" parent="1">
          <mxGeometry x="636.5" y="297" width="120" height="60" as="geometry" />
        </mxCell>
        <mxCell id="15" value="" style="shape=image;verticalLabelPosition=bottom;labelBackgroundColor=default;verticalAlign=top;aspect=fixed;imageAspect=0;image=data:image/png,iVBORw0KGgoAAAANSUhEUgAAAaYAAAGnCAYAAAD8LfOmAAAABHNCSVQICAgIfAhkiAAAABl0RVh0U29mdHdhcmUAZ25vbWUtc2NyZWVuc2hvdO8Dvz4AAAAmdEVYdENyZWF0aW9uIFRpbWUAc+FiIDIzIGFnbyAyMDI1IDExOjIxOjQ4h/AapgAAIABJREFUeJzs3fdzZNeV4Pnvvc+lz4Q3VSjvWfSSqJbrbnW0mdHs7szGTEzE/mX7+/60MTHbuxPqmWm1Wi2JkkiKTizH8jAFkzCJtO9lPnfv/pAAXdNVFRIJcz+MMiyiEg9gZp537j33HKG11hjGEaS0IlUpvTikm/RoJ11aSZdm1KEd+SQqJdEpqVIESY+tsEEz6hAkIT0VEaqYII0I0ohO2qOd9p7reopWhoKVIWe55CwXTzpkpEvO9ii7Bca9Cjk7gyUltrCwpUXOzlBwcow4BSpunqydwbNdAIQQWNJCCrkX3y7DODCECUzGYaDRKK1RWqGUIlYJkU4I05gwjYhUTJwmxComVikRKd00JkhDeklIlIR004hARQRJjyDpobQm1QqlNWEa04p9/KRHqGIilZColFDFhDohUjGRip/ra3ClgysdPGHjSQdbWriy//u8naHk5PEsBykElpBIIchYLhnLpWBlyNsZXNvDtVxcYZGRNjnLI2M5ONLBsWxsYfX/ju3hChtH2kgpkTuPJxB79H/EMAbHHvYFGMa3kWpFrFLiJCJOon7mE/ts9ZrUek3qUYtm2KYdtmkmXRo6YjPxWQ9bhGkPlUYoNApIdf/X3VsyLcTOnytSrdG6HwR3/1Fa4yDwxPO9qYdaE6M/CRAC0f+9EFi7wQgQOxcmBEh2fgiBhUBaLo7lUrayjFlZpu0CY26Bolek6OYpOHkmMhWmc2NUnDwlO4tju/0f0sIW1nN9DYaxH0zGZBwISut+VpLGhCruL73FAd24Ry8J6aYhfhrSSnq0kh5+0sVPAhqRTysKaCcBftwliAKCNKJHQisN2U58EhWDSvufSEj4JGsQO78V/Sjw2T//AheB+5xLZpFWRHzZy01/+qvWO79+8c9V/7fSwhI2BcujID3K0qNgZ8i5ObJOhpyVoeLmGXWLFJwceTtL3s6Qtz1KVoaC5ZGxPbJOhqKT6y8NSgfX6mdz8jmDr2HsBROYjAMhUSnNuEMj7NAI26x3ayx11ln3t6h169SjDvXYZy31WU0ClI5QKkFpSAEFKDRag4XAExKB7mdAn7zh73iGN9+9WATrh5xneLl94drFzvVoBBEahe5nVzuZmAVYaKS0kcJlxM4yameZtQtMuyXGsiNM5cc5VZhiKjtGxStS8QqUnQK2NBmVMXwmMBn7JlEJcRrTiXu0k4BW7NOKfGpxh1rUYTv2acY+QRzQCjvUwhbNyMePAnppSKRimiqioSLQaT+L+CTT+TTrsRC4QiCP+H6KQhNpTboT8j7JsPROhiUkCIu8dMhJh4Lc2atyc5TdPGNeiZJXIOfkKDt5Rp08Izs/yk6ekpun5OQpOVkcy8GWZuXf2B8mMBn7phv36IQ+q90tloMtFjtVFjpr3G4v8zBYp5Z08dMQrRO01mjRzwo0Ag9Jdmcp7dMnrObLlt2Odjj61778Bfzp92b3+9HVihDFJ99VrRFCIIRN3vIYs7OcyY5zKT/D2cIMZwoznMlPMZefpODlyTqZ/fmCjGPPBCZjz2j6VW5RmhAkPdqRTz1ssRE2qYZ1NnsNtnoNmnFAK+7SiH0akc921KYV+wQ7lXafLF19Zt/HRuIIU1P2rDQQa02C+vRPPvN9doVNTtoU7RwlJ0fFLTDiFqg4OUbcHGW3xJhX5mR2jOnMCGW3QMnNU3CyuJaDJaSp+DP2jAlMxnPRO3s4Co1SilDFtOMuW70GK/4m8+1VPm4u8VFrgcWgymp3ixRAWCBshLDICQvPnMU5EEKtCHSK1unOcmmKRDHilDmRHeeNkUu8VDnLqcIUJ/ITTOXGKDo5POlgSYncrTc0RRTGczCByXgmqVYkOqURtqn3Wqx1a6wFNVbDOhu9BrWoTSPu0IwDalGHzbBNN+kSfnJIVe5kRP1MyDJ32wdCiibWGlCfVgiikdIhY2WYyVQYd4uUnP65q4pbZNqrcCo7zmxujJndYgonj23ZZl/KeCYmMBnfSv8wakqiUmKV0E0jumnIsr/Bk846dxtL3G894aFfZaVXo5EEhDoBadM/idOvlMsKE4IOGw10dUqo1c6/KVAJtpBkpcdcdpxrhRNcKZ3iSuUUJ3ITzGbHyDtZck62f35K2thCmi4VxrdiApPxrXTiLrVek2V/g8VOleXuFsvdbTajJpthk0YU0IoDekmPXhoR6YR0tzIMgP4hUtuEpUMp2Sm9/7TyTyGF2Ok04ZG3szt7Uzvtk5w8p7ITnM71y9JP5ieZzI5ScvND/TqMw8EEJuNzdgsYEpUSphFBGtJJQjZ7DarBFg+aT7jTWGTeX2cx2KCZdumoEISFFBZZJI65Kz5WYq3oolA7e1KecMhKh3O5Kc7nprhSOcXF8hxzhSmmsqPkLa/fSsl2caRtCieMf8UEJuNzUq362VHYZLG9xp3WMu82H1PtbtNNurTjLs04IEoj4jQi1inxTlcCsZMVHfXzQ8bnqc8eZKZ/wNkSEtdy8SxvZz8qS87JMZUZ4ZXiKa6V5jhfnmMyM0LByWKZmxnjM8zO5DG22weul4b0kgg/DmhGPtWwwXJ3i/nWKjebi7xdf8RW1OxXaYl+9zZPWGR27nRd03/tWJM7Pf++qJX0CGMfeuqTA7+jToHN8hZr3RorvW3m8pNMZCqUnTxFO0vWzpC1PdNw9pgzGdMxluh+IcNKZ5PlzjoPGovcbz7hbq/KclgnSGOCJCRIQlKV8OmhTYEUmMzI+FoKjfqk51//uSOlJGt5ZG2XouUylalwJjfN5eJJXiid5nRxhlPFKRxpm4azx5gJTMeI2tk78uMurThgM2yyETZZ6lRZ7KzxuLnCQqfKUlhjOw1AWFjCwhOWKec29kSKJtQpqU5BJRTtLFOZUc7lZ7hcPMHZ4gxnijNMemUmvDIlJ0fByWGbuVPHiglMx0iYRARRl4XOGvfby3zYeMyHjcdshHVqYYueUkSq3xJVaL3TfHv3H8N4fruNbPVOhZ8SAiUsXGGRtSzGnCITbpFXK+d5tXKOK+VTnC3MknOznwxINI4+s8d0hCm904khCtjs1VkJaiwFWyz56zzx13ncqTLvr9NJuwTpp5V1rpBmM9oYiN3O6Lsd3jWaVCX4OsJPFH7UpdZrEKYxG2GTjzurnMpPMZcbYzY3xtROybknHZNBHWEmYzrCIhXTjHwet1b4YOsub28/4K3GY+pRm1hF/fEIWuwM0Nt9GuyOVTCMwfv0ZFT/592WRqkAJQSOtKk4eb5TOsP3Ri7wxuQLXCzPUXbzuNIZ4pUbg2QypiNEa02QhrSiDiv+Jk+CTRaCdRb8dRY7Gyz4m2z06oRpBCgcYSF2NphNIYMxDJ/eBH36/NNoEqWI6Z+li9OYmyzRSgLme5ucLUxzJjfFXG6CE/kJSm6BnOWZ/nxHiMmYjpBUp2x2G8y313iz+hFvb93mg9YjqmELJR1sLDKfKcM1L2PjIPt0fq+mpxUJCqlipr0Sr5XO8/3xF/jx9MucLc4wka1gmSq+I8NkTIdcb6dn3VK7ykKnyr32Mvc7Kyx0NlgJtugkMVJYSAQ2ezOJ1TD2g/jM7+xPhkFadJKYj/0qLZ1wP1jlfGGGC4XZ/vyownS/R59tZkcdZiYwHUK7VU1Ka9pxwFbY4t2tu/x+/QbvNB5w118FYWMLm6y0yUlv2JdsGM9MAK6QuEgQNjGaR90a94IqbIScz03zaukcP5x8CVtYTOdGcaSNFNIc1D2kzFLeIROp/qHXJ511HrdWuOuvcq+zxkqwxaq/RS1q0IoDEBKxM1LC7B8ZR4naGc2hUaBTCnaWiltiNjfOydwElwszXCnMcrE8x6nCNDnbM4USh4zJmA6J3XET9ajDeq/On2oPeGf9Fu+35vmgvcTuIl1WWGSkOe9hHF0Sgbczywth46cJW8EmD4INQPNS4SSvFk/zw9gnBSYzFUbcAu7OMEOTQR18JmM64PpLdoqtXpOHrWU+ajzmj/UHLAWbrHcbNGOfZuwDnzZRNV0ajOMk/UIT2aKdo+zkmM5WOJUb59XyOV6snOVy5QxT2REsYX1pbz/j4DAZ0wGltCJMY4KkRz1q87i9xoe1e7xVu8tva3doJf0DsRkhyZhqJOMYs3ZuyHa1koCNuMMDf5WCdKj6NWphi46KuVg6ybhXomBnyFiuOaR7QJmM6YDqpRFPOut83Fzkd5t3+Lj1hGpvm1rUohH5JFqByZAM41/ZzaBAYwlByclTdouMZSpcLc3xF2PXeKlyhtPFGbK2KQw6iEzGdIDEKiFMI7ajNmvBNveai3y4/ZBfb95i3l+np2KkEGSkY0ZNGMZX+GwGpdBsRm1Wwya0V1n2N1FJSDv2aSYB09kxRtwCGcvFtUyBxEFhMqYDQgONsE21W+P3G7d4t3aPB50Vlrs1OnGPUMWkWiMAKUydnWF8Gxo+03JL4Embkp3hZG6My4WTvD56ie+PX2UmP854pmwKIw4IkzEdAI2wTS1scb+9wt3WE97ZusuNna7fQRLiSQdLWNhmw9YwnopgJ4PaCThxGrEa+zTiDhu9FvU4oJEEXCnNcbl4golshVGvPNyLNkzGdBDc3H7I+5v3+FXtFn/Yvk8r7tFNQ6RWSK3NIUHD2CO7U5v74zYkWcul4GT4bvkcPx65zJ9NXef1iavDvsxjz2RMQxClMUEasuxv8rizxq3GPLfqj7nZfsJysAn0D8VaZvyEYeyp3SMVu+M2WiqmFXe4oQVhErKZBix0t7hQmGUuP0HezuKZvad9ZzKmIWhGHarBNr9Ye4//uvQmK71tNuM2Qn++P5gZP2EYg/HFcRv9DAoqVo5Jr8R/nvsJ/2b2u5zIjzPilYZ4pceTyZj2gUaTakUz7LASbPKgtcyt5iLv1x9yt7NGkIbEOsEVFo6ptjOMgfviuI10Z8xGM+0QpSG/2bhBO/H7B3NLc5zITVD2CljCdI7YDyZj2gdKKyKV8Ki1wu/W/sSvN2/wq60b1JOQFIknJFlhTiMZxjD16/b6v0Y6Jmc5/HT8Jf5i4iV+NPMK50sncHeawxqDZTKmAUq1wo+7rHW3udF4zM36PDfrj3nkrxGlKTYSW0gc02bVMIZOfOZXgSBKU263l+mplJWoyYsjZ3ihfIaZ7BhFJ4ctzerGoJjANCBKa6I0phY2udNY4O+Xfse72/dZDeukSpGzXHJm2c4wDiRX2Cg09ztrPArWudVa5H77AuqkwhYS13I+Gath7D0TmAYgVglLnXUetJZ5e/sef2o85n57lXrSw0JiS5MhGcZBJwBP2mignvT4qLmEn8bcbC7yxuglLpdPcbY4gyPN2+heM9/RPdIf3ge9NKQZ+dyuz/OHzdv89/X3ud1ehp3ChqyQpredYRwCAoEjLFI0nTSk7le531lhvrOKH/lEKibvZKm4BbKW2x88YzKoPWGKH/ZIohLCJOKdrY95t3aPG4157rWXWevVaSVd+meTJLYwNT2GcZhoINEahQI0RTvLVKbCpeIJXiyf4bujl3hj7ApZJ4tnm1loe8FkTM8p1SmJStnqNVkPary5cZN/Wnuf+e4Gm2GTrOXhCfNtNozDSgCO6Dc3AvCTHrdbS1R7dR631/DjLnkrw8n8BNO5MWxpm8KI52QypufUiny2wxa/Wb/Bv1Q/5J6/xry/QaQiUpX0h5KZHMkwjgy1cy5RCgvbcpjLjnEuN8lfT7/GX02/ynimTMUrDvsyDzVzK/+MwjTCj3s87qxxt/WEX61/xC/WP8RXMaFO8ZC4JlMyjCNHIpDCItKKIOlyv73CUqeKI21c6XCtcorzxVkKTo6MZZb2noXJmJ5RNajxsPGEX23e5H9sfMhKd5vNXhMLsIVAgsmUDOMI64/T+LSDednNM5Gp8NeTr/AXEy9xZeQ0J/ITw77MQ8nc0j+lThyw3t3mTmOR92v3eWv7Hjcb88Q6BSQOAtsEJMM48iT9G9BdG2GTatggL11SldJMA15IukxnRyk5eVOx9xRMYHpK6906v179gN9v3ebt+n22Ix8HgbOzbGeyJMM4nhxhodHcai2x3Kux4FdZ6azzV7PfIV/OYGGZ4PQtmcD0DTT9XnfNqMPjzhof1h7w640b3G4tstKtobTGla4JR4ZxzEkEGkGQhnS7IR8hCVWCkpJ61OFS6SSjXgkpTSPYb2IC0zfQWpPolJVgi58/eYs3N29xt71CJ+kisbCleYoZhtEnAFdYKOBJb5utxGelt80Tf4P/48xPKdhZPOGazOkbmMD0FTSaMI3ZDtvcaS7w3vZ9/lC7x0O/SiftodDYpgW+YRhfIBBINInWBEnIYncLp/6QvJ1lrbvN9ZFzjGfKZC3P9Nr7CiYwfQWlNX7SY8lf5x9W3uZfNm6y1K0TpCEZ0S8FN08pwzC+jEDg7rQzqsdd/tRcZC2osRxs9g/dSxsv6yAxB3G/jCkX/wJNv/Jus9fgrc07vF27y3v1R8x3qnTTCKUVjhCmyMEwjG+kgFgrtOj33TuVn+SVkfP8aPwqfz5xnansCCW3YN5NvsBkTJ+h0Sit2Q5bPGyt8POVd/if1fcJtEJrTVZaeGZImGEY35IEPCGJ0fhpxI3WE260nrAVtph2y9jCouDkkEKYbYHPMBnTZ2yHLTa7dX5Z/YBfb3zE/fYqy0Gtf8cDJlMyDOOZKDSx1uy+2c7lxrhanOUnEy/y06lXmcmNMZEdGeo1HiQmY6I/aTZRKavBFnfq8/xi7V3+Ye2PZK0snnRxTZZkGMZzkAi8zxQ6LPvrPGgt0EtCylaOl8cuUHTzONLCMgNETWACqIctVv0tfln9gH+svseCv07OyponiGEYA2ELi5yV5UFnlf9r6ZdUwzpJmnKqOMV0bmzYlzd0xzowxSohTGMWOlU+rD3gN5s3+OeNj8hKF0+a5ouGYQyGJfqZUbVXZ95fIyNcctIlISVnZ8jYHu4xnox7fL9yoBF2WGyv8auNj/j52h9ZDbbISc9kSoZh7AtbOOQsycedFRorXZppj0SlXCzPMXOMM6djGZgiFePHPR61V3hn8w5/2LrN+/WHCA0Z6Qz78gzDOCYsIbGEZDNssR42Kdk5LET/AL+0KDk5vGM4OuNYBqZW5POwscyvNz7iv629zUpQwzUNFg3DGBJX2Cg0t1uL1KIm3bRHmIS8NHaBmdz4sC9v3x2rwBSpmFbkc7/5hN9t3OCtrTvcay0TqgTPNGI1DGNIds8x1aMOnSSgbGXRWmPtjGgf9UrHKnM6VoHJj3s8bCzzu40b/P3K71kINtBg2gsZhjF0/QawNmi42VpgO24BkKqU1yauMGEC09ESq4RG2OFRe4Vfb3zEW1t3WAg2aCe9fqZklvAMwzgApJDonS4RK91t3qndRQiBZ3tcLp9iLFM+FtV6R/8rBMI0ZrG9xjubd/hva29zr7WMhp3lOxOUDMM4OAQCT7rESvN+8xHNtEvWyiAR5O0Mrnv037aP9FeYakU9bLHQqfKrjY/4w9ZtVoIaoUr6y3cmUzIM4wASCDSaWCmqvQZvbt0m3anUO1ecZSJbOdLHWo50YEpUyqq/xYe1B/x87Y+8X3+Ii2UKHQzDOPCkkHjCpR33+O3WbVpJQNnKYGNR8YpYlglMh4pGUw/brAb9NkO/2bzBarCF0CCEWbwzDONwEPT77EkEa91t/rH6Pr4KEVJwKj/FZG7kSG5HHLnApOkP+dvs1rlTn+cfq+/xzxsfkZOeOTxrGMahI4UgIxxqYYtfBFUC1WPMKWIhGc+WkcI6cqHpyAWmThywHbb4ZfUDfrH2Lgv+OlnpHun1WMMwjj5LWGStDMtBjf9n5fcEKqLiFRnLlCi7hWFf3p46MoFpd8jfZq/Bw1a/LPwf1v5Ibmd0hWEYxmHWb1/ksRE2WQiq5J0sF4onuVyeI+9kkUjkESnoOjKBKUxj/KTHW5t3+PnKO9xvr5I1oysMwzhi+plTlo/bq/yf87/g3594g5KTo+jmyduZYV/enjj0gUkDWmu2wzZL/jpv1+7yP6vv9wdzmUzJMIwjZndkxpOgxl1/g3GvxPncFOdLJ8jm3Z0Cr8OdOR36wKS0ItEpd5oL/MPK27xXf0SgFR7CTJ41DOPI+1P9EbZK+d/nfsSkV8a1nE967B1Whz4wNaMOK8EW723f5182blLtNdFao4/IWqthGMaXEYCDYMnfwI86nMxNMJMdZS4/yXimcqgbCBz6wPS4s8bPn7zFH2r3WOrWSVVCVloc7vsFwzCMr+cIgRQWsU5Yj31+tXkDP+nyH+Z+xIhXxDrEo3wObWDqxAHr3Tof1h7w5uYtHvpVgjTEQeCZJTzDMI64/sHb/rnNWMc87KwRpzFz+UlG3AIn8hOHtoz80Aam9e42v179gF9v3OBue4VO2iMjJCYkGYZxnDhCYGHRSXrMdzf57foNpFL8zck3TGDaL2EaUQ/b3Gks8vut29xuLdJJuii0matkGMaxI3dq8FKt6CYhd9vLeNLmRGGKgp1lLFMmc8hmOR26wNQf9veE92v3ebt+n5VuDYmFLaQJSoZhHEv9IYMSBTzpbpGgOLM1TdnK8fL4BROYBiXVKX7c43FnjV9t3uSt7XtsRz5Ka2x5+Ov2DcMwnodAINEkQCPyeWf7Hpa0KHg5bGFRcHLYh6SM/NAEpkSlbIct7rae8D82PuRmYx4HgWtGWBiGYQD94OQKm0jFvF2/j68izhVmGXNLZCz30ASmA18roNEkKmGr1+Q36zf4p7UPWOluE+sUwAQlwzCMzxDsZk+CzV6DX1Tf55+rH1INaoRJhNZ62Jf4jQ58xqQ1hEnEelDjX6of8ov1D2mkEYcgphrHyO5Ssubgv+iNo08i8IRNM/L5p+oHxCrhhdIpKk4ex7IP/NbHgQ9MvTTkna2PeXPjJvc6a/gqxqJ/4tmUOxjDpIFIq34FlFPCEZJaEtBVMYlWJkgZQ5eiibXmcbDBP6y+g5/2+NH0ywe+2euBDkyxSmhGPu/W7vFPa+8z390iVClZYWEf0hPNxtGh0ERoMsJi1q2Qlw5CSGqJTzvtobRZajaGSwMxiifdbX65/ifyTpbro+dxpY0jD+7b/4FdD1Nas9RZ593Nj7nRmGe+u0GURnhCIs2r3TgwNI60GfcqXCzM8kb5AhdzM2ghiXRqciZjqCQCD4skjVju1bjRmOcP1Rs8bq2gtBr25X2lAxkyU62I0pgHrWX+sHmbe+1lNsMmWcvDFQfyko3jSmscYTHmlThXmMWRFlg2HwTLJKnCRWLyJmNYJOAKQaxTalGP++0V3ty4iWs5nMhPHthKvQP5Lu/HXWphk7e37/Hf19+nFrbIWp4Z+mccQApHCCpugbnCFOO5EWoywdv6E20dgFlyNg4AS0iy0mEjbPLLzRsUvDwXSieZzo4ylikP+/L+lQMVmDQarTVr3W3uNBb4U+Mxt9vL5KSDZzIl46DRup8xSclopsSJwiTThQlOh9uc8EaI4h6RjhFgCnWMoZL0O5G3ky7rUYsPG/Nc2rrHa2MXqbgFpJAHqhP5gXq3T7UiUSk3Go/5+6Xfcb+9CsLCLIUYB5fCkRYTuRGmCuMUvDyzmRG+XziNSCJudFcRGjIm2zcOBAHC4l57lf+y9FukkFwozOJYDo51cMLBgSp+aIYdHrVWuFmf593t+2z0mjjCwvQMNw6aVCuEEJzwRriYn2E6N0bJK+BaDpOZMt8ZOc+5wjQgUKYEwjggJBJHWNSiFh80H3Oj8Zi7jUXqYWvYl/Y5B+odfyXY5Hdrf+Jm/TGrYZ0oDckKaUrDjQNFo4l0ghSCV4tn+cuRF5jNjuJY/XLxUa/CqxNXOFs6eSA3lo3jyxaCrJCkKqWedLnZWOCXq++y6FeHfWmfcyACU5TGNKMOD1rL/HrzBo/8NVKlEIB14M8oG8dJgiLWmrx0mfNGeH30It+ZuMKYV+6v0wM5J8NsYZJzhWkuZycZtXOEOsUUjxvDtvueaiEAzWKwzptbt7nbesJWr0EvDYd9icAB2WMK0pD1YJtbzUV+tXWDKE3JWaY5q3HwxFqRopmzi7yQm+E7E5d5aeIynuV88jGu5WBnipzPT/KD4lneVpq1uE0W21SWGgeCLSQWgmpvm62owbXGGa6WTnG6ME0m6w378g5GYFr2N/mX6of8qf6IbhoDAhOWjIMkQZFojScsSlaGN8au8OcT1zlXPEHO+Xx7FyEElrA4mZ/kJ9OvsKF7vNOZRyN3inkMY7h2G70mQJgmvNd4TMbO8bMT32MsU0aI4Y4SOhCB6XFnjf+69CYL/jqucL75LxjGPku0ItAJIzLPWafMX0y9zM/mfkDBzX/l3zlRmKLiFvkoWIblBA5Q1ZNhALjCRgvNu9uPWOjWuVA6wasj57GkNdTy8aG+UrbDJvOtVf60/YDl3jbttGd2lIwDJdGKWKeM2DnO23neGLvM98Yu8fLYRYpuHvtrgo0jbQpunheKp/hfJl7nUXeDhW4NR/QnLhvGwSCIdUIr7nCr/ph3sxNcLJ9iIlsZ2hUNLTBpYLPb4K31W3xQe8BG1CJWCTkz+M84QFIUoY4Zt3O8npvjf519g7899QMsaSHl1wcXS1pY0uKF4hz/afr7/Jf1d7jrryGlawKTceCEacSt+mMm7BwVr8h4tjy0RGEogSlWCZ24y8NOld/V73PPX0MicIVlgpJxICQ6JdYJE06R094cP5x4gZ9MvcTF8imkfLpT8lP5CV6bvs6dXpWPm0s0VEygExwhsM0z3hgyAbhIhNY89NfI2h7ny6cY88pUvOLnCnv2y1ACU5hGVLs17reXea/5mOXuJjlhI83GsHEAaHS/rFYI5rxRfly5zE+nX+Onp954pscbz40wnhvhev0hd3IPudXbpBE1kUgsYRavjeFzhEShWexuEaF5tbnEXG4Cz3KPT2Dajtr8fuMW72zdpRX3MC2HjIMi1YpIJ8x4FV7Mn+T741f54eSLnCnNPvdjvzR6gThNSNcAmb2/AAAgAElEQVTeZn2rTYqmpxWu2D1XYhjDJmknIW9v3yVve5S9AkUn218l2Mfn6L4GJqUVYRqzFtR4t3aPG43HdNNwp8GleWEaw6MBrRVSCIpWhgv5Gf5y4iXemHyBV6eu4u7BXeP50kmKTo5H3U3m/XVWoxadJMTGwjJPf2PoBFJIumnEreYCJTvDqyMXmM6MkLMzWPvYxWRfA1OYxiy2q9yuz3Ovs8xGWEfqfkt287o0hklpRagiZrwKb1Qu8IPxF/jh1EvMFab2rK2QazuMZsr85eTLuMLm/62+x43WAv2waF4BxnAJwBUSrTX1qM2Cv87HjUXG3CLnyifIHcXApLXGT7rcaS7ywfZDVoIaQRLiSRfLVCgZQ6LpByUpBKNOnkuFGX4yfp3vTVzj8shpck52zz6XLW0Kbo4XR86SkTYrYYNOEtCM2oRphBzyoUbjeBOAjSBFE6Yx1V6dD+oPqXhFJnKjZC1v38427VtEUFrRiDq8VfuY323doZOEeNJBmgatxhDpnUwpI23eKF/gbydf4/vTL3KuModnuXv++YQQlLwC58sn+fcz3+M/znyfCa9EqGOUNr30jOGTQuBJh3bc41e12/ymdoda1CbRKXqf+j3uS8aUqJRar8nj9hp3W8ssBBtYO21bDGNYUp0iEEy4RS7kpvnB+Au8MX6Ns6UTlL3iQD6nQODZLqOizMuj5xBo1sJtlFZshU1ClewsbZsbNmM4BP335lAnLAZb3G2v8KC1TMnOMp0d3ZeO+fsSmGKV8LC1zIe1e1R72/RUTEY6ZpyFMTS7oysy0uZ6/iQ/HnuBn8y8wuXK3i7ffRVbWozlKrzAOf5DGlORGf6/9T/S7tXJSPdATRM1jjNNrdfgvc07FKTDqFc8GoEpUjH1qMNHjce8VbtLLWrtrKUbxnAkWgGaSafE6ew4Pxx/gT+bvM6Z4gwlr7Av1yCEwLVcxjJlXhw5R6QStpMOHzUXWO5tE6vUdIcwhkoicISkGbX5Y+0eI16Ri+VTTGYlmQEsc3/WQAOTRhMkIeu9On+sP+C3tTugISMds1RhDE2sUwAu5ab5yehVfjr7Oi+OXxzIntI38WyP2dIU0rLISZeKXeD/XvsDfhpiCfM6MYZHIsgIi1bs8079PhO5EX4wcZ2c7eFZg31uDjQwKa1Z6lT5YOsei/4mrSQkJx1cs7dkDMHu6IqKnWXKKfHG2BV+NP0KZ0qz5Pdh+e7LSCFwLYexbIWro2doqR61uMOt1iLzwToAtnm9GEOwOxoj0opAxSwFW3xQu48jbUa8EtYAl5sHHJgUD5pP+H31BtVufWcWjbkDNIajP7oi5ZIzwXcKp/jx1Ev8YPaVfT04+FVyToa58iwIQR6brLB4FKySKIVtDf/6jONMgLCp9pr8YeMWY16Jl0bPD/SYz8ACU5D0aEYd7nZW+bC9SDP2yQg50ChrGF8mQX8yDn1KuvzZ2BX+eupVzpdP4gyhD9iX6VdCCUYzZa6OnWUjbrEVNrnnr7LQ3cSRNrYw85yM/WcJQQaLdhxwo7XEpfZpqsE2I16RwoBWGgb2TPfjLtVgm3udNW50lskJm4xZkjCGINGark6ZlgUuuSP8ePI6Pzvz4wORKX1RyStQ8gqEaYyOYtCKe/4TBJmvnf1kGINi7dw0dZKAjbDB9c4Ky/4GtpSHLzAt+5u8s3mbtW4Ns3xnDJMjBDksXho5y/829TrXRs4+9eiK/TaZH+e7sy/SFhHdpMfjXo0nUQNXWGbPyRgSAcJirbvNWxu3sIRkJjc+kM+054FJa41CseSv887mHarBNgLTasXYf3rn54x0GJEur4yc52enfkTezR3IbOmzxrMVxrMVwiREhSH/uH2Tpajebza701vPvKKM/SQQCCFZ627z9uZt5gqTvK4vI9n7m7w9D0xBGtKOfO61l3mn8YBG0iUrLLO3ZOy73REWl4sn+en4i/zZ2BUKXh7nEC2JnS7P4lgObZHQDNusxG1qaYArJPb+dRQzDCwhyGLRiFp8mPZ4tXOZzW6Dopsnb2f29HPt+Su0FXVYaFe531nhrr9KTnpk5P6fDzGOr92swhaSjJXlWvEkP5v+LmfLJ8g6e/sCGrTJ3BiTuTHWgi3qQZ3ftx5TCwKUBiW0WYsw9s2ne01dNsJtHnZWedRa4Wxx9uAHphV/kzerH7HQ2QBhgzm9buwzpRWhjjmTneCN8nl+Mv4CZyqD63+3H66PXcCzXLqLmlrYoK4iejrFE9IMGTT2l7BAejxoV/nH1Xf5u5NvMJvf272mPYsaSisiFfMk2OTtrdusBFvYwkaY5QZjn2hgt/+xJ2xOZ8f58/HrvDpygfHcyKHLlj5rNj/B65NX+d7YZV4unaZs54h1ajqSG/tOILGFw5Ngi99v3mLRX6eXRqRa7dnn2LOMKVQxnbjLQrDOB61HdJKYrLQ52FvMxlGi0IRakZMOJ+0C14tzvDZ1jdPFmUPfyV4KSdbO8IOpF/Esl/riP7FS29o5tG4Y+8cRAiksmnGLe2nAkr9Ordek4hb2rIPKngWmdhQw315lwV+nGraQwiInvb16eMP4Rpr+maWSk+e1ygVeG73IXHGa0iFewtslhMCRNqcLMwghudlepBl1WO81CdLQjMow9o3cWQcLVIKfhsx3qtxtLHKlcnrPAtOerbNt9up8sHWXxc4GSjrmTs7YfzurWpOZEX46+x2+N3md3B5vyg6TEALP8ZjJjfGz6e/xn2Z/yKRXIlSRWdIz9p+wUMLmYXuNtzZusd7d3rOHfu6MSWlFnCasBDXe3n7Agr+JjbV/M9uNY0+jSbXCs1zOZqb53shFrlXOMpMbx5FH65loCUneyXK5fIowjbnbfkI36VGLAxKdmszJ2Dc2EoTgSbfG+43HvDx+iatpiCud5+6j99yv2kSlBFGXpWCLtxqP2ejVyQhTxGrsHw2EOmHUKvJXY9f46cRLnMyPk3E85BGsCrV2hgxeVHP8aOQqcRTx2+Z9/CQiK6R55Rn7whESG001bBALzZNejVbkU3YLWM85Qua5A5Mfd1norLHkr1OP2oRpRE7a5sVhDFx/T0khhGDSLnI1P8Oroxe4UjlN0c0dyaAE/RP4trQZ9Uq8Mn4JX4UsR9ukfkpXp6RobDOM0xgwsfNzpGNaSZeFdpUHzWUuV+aee5Dgc79yW3HA/fYyT/x1YhUBe1cyaBjfJEKjEJz2RnmlcIoXR89xujxLxj76hTcFN8eL4xf53uQ1ruZnmLDzJEBkXoPGPotUwnx7lTv1RzTDznM/3jMHJo0m0SmbYZMP6g951FlDanCEOe5n7BeN1oqs5fDy2EV+MPUSE9lRLGkdi6VkIQSe5XIyP8lfTL/Gd8Yuk7NstE75pBLEMAZIAA4WltbM+1U+bMyz0WsQp/FzFeQ881Ke0ppYJayHDd6vP+RxZw2Lfn27YewXiSJvu7w6dok/m36RglcY9iXtG4FASMFUdoyfzrxOS4X8evsWfuwP+9KMY8QVEjQs+Bs40uFveg2iNCYj5DNXZz9zxtRLQ1Y6myx1qmxFLfw0RJslBGOfRDoh0YqXi6f5dxOvcqE4Q87JHvqDtM/CtmyKXoErpTn+3eTrvFw6TbLTwNYw9oNGE+qEZuyz2Kmy0K4SJOEzP94zB6ZuEvGks85Sp8p21KarzMq2MXia/i5mqhVSCF4unuJvxl/mbH6ajJPBkkez4OHr2NIi7+U4X5zlbyde4eXSGSwhUbp/q2gW9YxB00CsU5pJl/lOlfnOGkHae+bHe+ZXcScJuNNa5F57lUArc6DW2BfxzjTavPQ45Va4NnKW65OXGMmUhn1pQzeSKXF98hIvjZzjUmaCspWlq1Nic/jW2BeSQMXcbj/hRnOeVhw88yM99R6TRqO0phn53G094XFnjUilO3tLR3/D2RiuFEWoE866Fa7lZ7lcPsWZ8slhX9aBUHDzFNw8VztneLl4ilBr1rprSAGYrpXGQAmkkEQq5VFnjZnsCPWoQ6wS7GcoRnrqjCnVik7cZT1s8CiostrbRmqFaw72GftBJ6AirpXm+Lez3+d0fmrYV3TgnMpP8Xcnvs+1ymnQCkzGZAyYoF8EYWtNI2qxEmyyEmyy3WuRqPSpH++pA1OiUmphk5Vgi7VenWbiI7TGPhYFusawKCBB4wmbCSvL1dIc35t4gans6LAv7cCZzI7w+vgVXiidZs6tkLdcEhTK7DYZAyKA/pAjTZCGbEZNljrrVLs1IhU/9eM9dWAK04jF9hrzrVWCNO7vLZmIZAxYohVdnTLmlHgtf4bLxZPMlqYouLlhX9qBk3UyjBdGebF8mr8dvc5cZoyuTkhM5mQMnADp4KcJD1srzLdX6SXRUz/KUwemIA2503rCzeYiQRJiieNxmNEYLoUm1orpzAjfH73C2eIMRS+PYznDvrQDx5Y2OSfL+eIsfz75ImfyU1jInb0mwxgcIQSWsOimMR+3nnC3vYyf9J76sO1TFz90kh7vNud5u/6QKA3xTGAy9oUGnTKXn+QnM68yZ/aWvtFsYYKM5XIjWGFk+y6JVns6ZdQwvkgg8IQkTEJutBeZzI/xb5OAaZ3udAX6drHiW2dMSitakU+1u81at8ZW1CJVKSYsGYOk0ERakZMup5wK5/NTXKicNuXh30LBzTFTmOBqaY7Xy+cYcwpEOjF7TcbACMBCoHRKPfbZCBtUgxrNsI16ipuibx2YEq3Y6G7zpLNOEPtg+nEZ+yDR0NWKkpXjldwsl/IzTBfHyZu9pW9kSQvPdrleOs3fTbzKTGaUropJ9NNXSRnGs/DjLkvtKuvdbRI1iMCkElaDLR63VmjHPRASU/VgDJ5C6YSZ7Ag/mnyJi6WTOJZzZEda7CWxc7bkRGGSV8YvcSY/wYjMIJFE2lTpGYMkQEjaScij9iqrwdZT3RB96z2mRKUs+xs8aC3TTnr0Y5oJTMaAaQU65mRujL+cfZ3TpZlhX9GhM5UfI+tkOLcxxbSdZyXt4quYHJYpiDAGpL+o1056PGgtc7E4S6K+fe/Gb3XbmWpFN41Y7taY9zeI0ghPmCe1MTgKTagVGcvjgjfBudwkU3mzhPcspJBkbJerpdP8YOwFJr1S/6Cy6W5pDIgU4AlJlEYsBBssBZu0Qp/oW5aOf6vAlOiUbhqy3N1mMdggTiMyQmJ6PRiDkmroaUVWelzJTnM+N8lorkzWyQz70g4lW9hcK53mxxMvMf1JYDJLecZgSAQZIYnTiIXuJkvBFs2wTZhE6G/xvPvGwKS1phG2WfY32IyaNNMusdk8NQZOgY6Y8Ap8d/wqF4pz2KZR8DOTQjCZH+Pi6Cku5mc46VSwhE3P7DUZA5RqRVfFbMdtFv11alHrW3XI+ubAhKbea/Gks85m2KSjQmJzFsIYIL3zs60VU16R18Yuc7Y0i2UKHp6ZFJLRXIUz5Vku5mc4nRnHFvZOEYRhDEaKJtQx29FOYApbe5MxKTRr3Rp3G0s0osCMtzAGSqHpaYUlbE64o5zNTTNXmmYkWzaVeHsgY7lcK5/h9ZFLjDrZ/pKeaVVkDIwAYdOMuzxsrbDeq6O/xfPta1/pGk2qFKtBjbutJVpxgDSdHowBUkCsFa50OJuZ5Hx+mun8OAU3jxDmefe8POlysTTHy6PnmfRKeEKAmT1tDMjukYVW0uVeZ4W1bo1Up98YnL42MKVaEaqYpe4Wdzor+EmXLBLLvEEYg6I1kFJxsv2Bd8U5PNMPb8/Yls1UcZwLlVNczE0xbZdBWIRmSc8YAEsIsli0ky43O6ssdGt04943jsL42sAUpTHtOKAaNnjS3aKXhjimGs8YIAE4CEbdAlfLpzlTnMGVJjDtFUtIyl6RE4UJLhVOcCY7gS1sEq2+1dq/YTwNCThCEKYRK+E2a70622GLbvL1Y9e/NjB14i7rQY1G1KarQtPKxBg4W0iKVoZJr8zp0gxTuTFs+dS9ho1vkLczXCuf5lr5NAXbxZxpMgZKK1AJzbDFfHuNRtT52g//2sDUinxW/E1asU+i1VO3LjeMb0sDCQpLWEw6ReYyY0zlRil6BVONNwBZy+Nc6SSXynOMOHlcIZ9+Bo5hPKVW7LPQWaMetb/24772udiMOix11mnFPZD2Tn88w9h7eqeLuJCSM5lxzmcnKTt5HMs2RQ8D4NkeJ4vTnC2fYMIrUZCuWaI3BkdIkDatuMdip0rjeQJTtVfnRmOeraj9TR9qGM9F0y+28aTDmfw05/Iz5OysKREfEEtICm6O6ewoV/KznMyMIYQkMUt6xgBIIXGFRSPucLu1xHqv+fUf/3X/cblb4536fdZ6Dfrb0uaOyhgQDWhN1nI5W5zlTGmWrO0O+6qOLCEEUkpGnSKvFs9wKT8Lst913BRBGHvNRpAVFvWwzfvNeVZ79a/9+C8NTIlK6MY9amGTle4WvbSHJ0yZuDE4lhCULZdpt8ip4hRT+XFcywSmQRIISm6ea6NnOV+axRESZQqcjAEQ9PvnhSpiK2qyHTVphG3C9Mubun5pYIrTmE7o04xa1OMmSsVkhYVtMiZjQGwk4zLLSbfCycIkE/lRHMtU4w1a0c1xZfQs50qzeFLAU4wmMIynFeuEbtqlEbXZ7DUIkvBLP+5LA1Mr7vLE36AeBaiduUsmJBmDoIFIK5CSs4UZrpdOU3HySCHNs24fWNIi62SZyoxwNTvDtDtCrCE2FbjGQAg0klbUZc3fwo+7X/pRXxGYfBb8dRrxbm888wZhDIomIgUpOVeY4Xr5DGUnP+yLOjakkLiWw4Rb5npujhPeKBGa2BRBGAMhQFi042cJTNFurXmnH5jM3pIxSCrFRjOdHeNEYYqM7Q37io6dilvgWuUsp3IT2Cgwe03GIAgJwqIWdXjQXqEef/lB2y8NTM3YZ77TP50rhPVVH2YYe0KgcIVgIjvCTH6CrAlM+67sFrhaOcOp/CSO6C+4GMbeEwhhsx21edhZ+coOEF8aceqxz31/jVYckBMWjsmYjAFypUvezlPOFCl6BdOCaAjybpaTpWlOFCYZc4pkpamINPaeIwQ5IWnGPvc6a1+ZMX3uHUBpjdKKeuyz0N2inQR45oCjMSD98zKCopVl0q1Q8Yrk3OywL+tYytgek/kxZnLjzHqjKKVppN2d04vmxtTYGxYCSwg6ScCiTtiOfWKVYAn5ucP0n4s6kYppxh22Y59a0iUwpaPGAEVaEaM4m53g9eJpxuzCsC/p2No9cDvtlXm9eJaZzAiBTsy0amMgYq3wVUw96rDVa9L7wnmmzwemNKYRdmjGPn4aEmkTmIzBSVEoNCczY7xQmKNiqvGGZneg27hX5qXSaaa8ESKdkpq9JmMAEjShTmjFAbVvCkyhimmEbYI4QJuRy8agaYWFZjo7ytnSCYpObthXdOxV3CKXKqeZyo70RxWY9wBjELQGrfDjgHrY+lcdID4XmLpJj/VujVbY+VZz2Q3jeVgIPGEzka1wojhJzskM+5KOvYKb5WRxiqlMhbJ08YQ17EsyjiitNa3IZ727TfcLHSA+F5jaccBSZ51a2EILYc4vGQPlCJu8nWUsO8JkfoyMbQLTsGVsj7HcCNOZCnN2iZKpzjMGQQi0sKiFbZ7463S+cND2c4EpSEJWghr12EebbuLGgKQ7s5eKVpaT7gijbpGck8WW5u582CxpkXE8Jr0KF7JTlOyc2WsyBqB/Uq4RtVnzNwmSrwtMaUg1rNOMg53AZBh7L9aaQCtG7TyXvAlGnRxSSjMQ8ACQQmJJi3GvzNXiHCW3QKATElOdZ+wxraEVdqj6NYKk97n/JqF/niTRKZ2kx2bYIkhCPCS26fhgDIBGo1CMekXO5qco2zlzVuYAEQhGvRKXyqcYcYsoM6PJ2GM2EldIuipiK+7QigN6SUiq+q2wJPQP1sYqxU96bEZtemlIVkjT8cEYEA1oxtwiZwvTphrvAOoHptOMeqWdCqphX5FxlDhCkBWSUCfU0i7NKCCIuiQ7gckGSHVKLw1pJV22k4BA9Uv3TFgyBkJr+P/Zu68myY4swe9/96tCR+rMytICqAJQ0I0WaDGz5HCXQ9qucde4fFrjF+J34BON5NJsjWu02eGSHNVquntaQjRkoQqlRepQV7o7H24kuoBGl4zIjIg6P1gDhq6szFuGe+NcP378HGdoBlWWqwvUpOhh4jSjBsfbR1istKnqAF86wIgR2o8tsc3ZNTEDl5NjvliZ+wCFtQyKMjDtmAF9m1FTgQQmMSYW5Qoaw8Ak1XiTpxnVaUZ1FqttajqQBZMYOQcMbMaeGRC7nAL3xbAVDeWKaZAnJEWCtUV5sE6IManokHm/wWLUZrE2J93EJ9h62ObV+jHafo3YGQoJUWKkFMY59tIum/HOFwdtNUBuC3r5gLhIcHa/44PcgGK09u+qig6Y9+ssVFosVOeIfDkrM6mOhG0u1o/S9mskzmDk4L0YMesse2mfrWTvy4EpKVLuDLbYTrsYVDnMSRJ5YsQK5xg4g4/Hklel6VWI/BBPzi9NrIWoxanGkbJAxVnkhVWMlsICvSJmN+2SDRuHl4HJZGwku+xm/fsCkxCjZXCkzhLpgFW/RcuvEnjBl9rdi8kyH7Y40VijGVQlMInRU2Vg6hYxO1mXzObAMDAVztDL+wxMIucVxBg5wDIf1DnbOMJcIGMuJl270uRYc41mUAFp7CxGTmEddLIB22mXzNwXmDJblKMuigTryi8WYvTKXaZWUON4bYWWnF+aeI2wxkp9gWZQJVQenpxtFCNmnCvHX6Qd0uGKyYdy3MVW1qOTx1h5IxLj5Cx1v8KqnF+aCpEX0owatMMm7aCOdSA1u2KULI6dos+9vEOyn8qzzpKanO28R69I0JTjCOS9SIycc+AcFS9kIWpRkTLxiedpj8gLWQpbrIfzRDqkkIS/GAFFGWu0c/RMwlbeIzE51lm0sYa4SNnKegxMQoQilOW6GKPIC2iGdUIdHPaliEfgKc162Oa56goVLyrLxiU0iREIlSJSmrRI2csHpCbDWIM2zpLYnJ3hHpPCoWW9JMairPiM/Ih21Jy580vOOQpbkJmctEjJzWwcR9VKsRK1OVVbpeZHGGdlkKgYCY1C40htRr+IyWyOcRZtcSSuYLfo05OqPDFOqly8V/wKc5UWFW+2ApN1lqzIifOYXjogLdKZqGLTSrMUzXG8vkrDi6RsXIyUc47MZsQmIXcGi8OPTUZqMnKbY5zBIT3yxLiUU5FDL6IZNQi92UrlFdYwyGN62YB+PmCu0qIaVPCmfDy5QtEM6yxV5qh4gbQsEyNnXTl6aVCkdPMBfi+PSUz6hx55zslIdTFWoR/QjOozdyrBWEM/HbAV77CZ7GJxrDSWmO6wBEopGkGNhUqLyPMp6/JkxSRGSJU98/rDDhC67JGXliWgEpDEGBgcibMESrPqVWnpAKXUzNV+WmfJbE4/j9lLu/TzZCb2YhRl2XgtqOJpn5l7oxCHSylAY4G4SOlmA3QvG5AUGZbyFyU4iVErnCN2lhCPo16Vtp6tvaV9ljIwxUXCXtYvmyLPwMpCoQi8gEpQwdf+8DNCPifEKJUdIOIipZv38Xv5gMRkw4O1crOJcXG0giqnK6sszGgrosLacrWU9dnLesQmnYkVEwpCz6fhV1gJGqx6DXKclIyLkbI4EpPTLxJ0v4jvC0xCjE/Lr3Kiusz8jAam/blm3bxPJ+sRF+lMrZhqQYUlv86yXyNU3gz8ycTEUGUBRGoyBnmCTot8eN5CbjMxTo5QB7TCOhVvNjs+GGdJTcqgiOkVMYnNZuap0koTaJ+qF1LRIQWQOoudmT+hOFxlts4UOXkWozObk9uivMEkkyfGomze6muPml8l0P5hX9BYWGtITMagSOibhMwWs5HKo6zM87RHVYdUdIBVigwrffPEaAzHX+Q2JytSdGYLDJYyKklkEuJJFc7SLxL6RVq+7M3YeR+FItQBFR3iITO0xCgpHJBiGWDQsUlJbSHl4mLMHJ5ShNrHn9GJtdZZEpORmIzMFhTOHPYljZRWmrpfoRnUZva/oTg8FkdqC/o2Q+9lPQZFIlV5YozKruJ/2GOazXJxh8M5R24LYlsGp1nau/WVZiFssVqZLztADFO0QoyCdY7YlJ0fdCfrMygSzIylHcSEcY5Q+7TCBtGsBqZhUMpsTmwycjdbBdVaaVphnfmoRai8YaeYw74qMSuss8Qmo1fE6E4+YFCkw+oaWTGJ8Qm1TzOozeyKyewfsLUZic3JZzCVV/MrNIMqvtIz0aBWTAqFdY5kPzB1i5hYzjGJsXP4WlP1o7J7wAxyQK4sGZYYQ+oMxprZqcwDfOXhKx8t+9FixAyOgcnoFDG6Y2IGNpNUnhgf5wCLRhPqYGY3zh1glSbTECtH6izGmpmrzhNiHKxzDGxKp4jxs2FZa6gUjtlrrCkmQVn84GtNJZjhFZNz5CYnLXJik5O5YqYOoCoUnvLwtSefE2JkFIoARQDk1jAwGX5Z0uqI0Dgls2vFuNgylRdUCLzZDEzWGfIiJS0SEpOS29naY0IpfO0RKG+YypOqPPH0FBAqTag0xhlim6PjYeeH/S8QYly00gReMPWD8/6UcrS6ITPlNM7UphQzeNBWzjuKUftDeweHw6ETW6YcZum8hZhM+/3WPD2bXQMcZSPXzOXEthzAmZsZDExCjNls5lSEOATWWQpnKJzBufLfc1tg7GwEJkVZ8h95wX2pPCFGwzpHZgoUCr88rS63mBBPy+HInaFwFofDOkdhi5mpeFWqHH8Rar/slDcjZfBiMjgcmS0Ppftxkc1UF2QhDoulHH2xH4icsxTGYGdmxaTwlMbXco5JjF65u2SxTuGntiC3RvaYhHhKzjnyYWAqV0x2WPwwO9V5Wmk8paVcXIzeMP1tkD0mIUbG4shsTvbFHpMjN7OTyhNinMpUuKVwttxjkh0mIZ6ecZbUmTIwwRd7TFKVJ8TDlVWt5eW0VuwAACAASURBVLOinbM45ySVJ8RTMjgGGBJnseoPx09l/1aIxzObB0qEOAQWV66YMLjhRE7jzEy1JSq3p+U1VoyXVkqjlPTIE+Jp2WG5a35f8UNui5mpyoOys0UhVbxizLS6rxmEEOPknCtXEDP6oWadJbUZmc2/yJdnJp+ZEevlecfyfJasmcQ4SSpPHBjrLMUMt+gxzpLYhMxmwzNNjqTIKIa9KIUQj8aPhiMIUiurJjFOisJZkqLsHzeL9tN3f9hTcmVh0QytEAtryvQkSDNXMVL7B7i1UvhVP8QVZbsRWZ2L8VCgNIU1xHlCbvLDviDxBBzluazM5MN0rAQmMTpaKULtE2gPX6FQSm4xMW6K3Bi62YDUZId9MSPlhisja++vV1MY58jd7BywLcvfZXdJjI8a/iV7TGL8VFlgk9mCTtYnmbHAhANrbbl3dt+ntnWWzOYzE5iEOCh+RQcU1ki5uBgzRWZzulmP1KSHfTFjpkCpshiiSMntbKQunbPERUI/H1B8MZ1XPjfEaCgUkecT6QBd1QHBsABCluhibNQwMOX9mUvlfT1N4SypSWemKs86R2wS+sVgWAIvQUmMjlaKQHtUvADtKw9QpFgyN0tn1MXk2F9BQGoLipk5cPpg1llSU1DMSCrPDQ/YZtZIVZ4YKx0OZ6tkzpHL1qYYm2Fqy2Qzc+D0fvsFEPc/PcZZshkKxM45ElsQmxyDQ6qmxKhYys4pmnKsil/TYZnTk7cfMTb7xQ85naxHUszWHpPDYazBOMP9CXHjLKnNh///9DNYdosBm3mP1BrK8/nyuSGejgMyZ8F5BNqn6VXQDb9KVYdoKdATY6VITM521mUwY8UPzg0P1n6lVY91jnyGRqsb5+gVMZ2iT25nI9iKw+dwFDgMUPVCWn4VPR82aPgVPKWQ8gcxTn2TcjvZplMMDvtSDsR+Jwg3I4EJZylMRpanM9tWShweT2nqXoX5oI5ueVVqXiipPDE2GkWgNAOTcS3bZbsYlB/YM/4i5FyZ4puFprVlA15LXKTERYJyFl8OmYgR0kpR1xFzXg1dVwER/jCRN/0PkJg8vlJUlSZ2OZfzDptFjLFmpnrIfVm5p2aGB2xnodjDOktucrpFTNfEaGeJlEZLaBIj4fBQ1FRAS0Xoml8l8oIyMM3sB4U4TArwhk1cuzalU8T00j5ZMRsHT4HhHpP90iPkGI75YLrTXvtl4oMiZavos1X0KZzBkxWTGCGtFFU/ohHW0bWoRuRHw1tMApMYp7LbWpzHbA12iIvksC9oJPY/uAtrvpSedJSVbFO/MnSQm5x+kXAv73HX9ElmYBUoJolDK0UUVqhXGujIjwi8Ybn4lD8/YtI5cJY4j9mMd2cnMLn9/93/ACkKa0hMTj7lH+IOR2oyBnlMYjIyW0z9KlBMGOdQQOQFVP0IHfkBgSfbmOIAuDIwDb4ITLNVNv5VhbPERUY+Ay2JsiJnkCXD9kryBitGrQxMgfKo+CG67lepSFWeOAiqbE3ULxLuxJv08/iwr2isnHMUbvon9lrn6Bcxu1mXzBbIoVoxcg60gsgLqfkVdCOo3ReY5E1IjFM5MLBXxNwZbNEvZjswWSyFm/5ycYejn8fspl0yU4CSjg9i1BwaRcULqPsVdCOslUsnHGClMk+MmWYvH/B5/y57ef+wL2as7HBQYMGU7zE5x066x63+PfomlcAkxsB9UZXXDOroZlArN5twEpTEWO3PptwrBnwe32Mv7w8bn87CfffHfwaDJbNm6lsSWWfZSjvcHGwwKDKZLypGy5XVuhqoehHNsIZuBTVqXoTWnrSxF2PlK0VNaVJbcKvospX16WV9CjPdxQFlE1c7PDRMuaJQarjHZKc+lWdxbGYdrseb5CalorxhCzMhRsQ5PKWo+SEtv4Zf8yIqXkioAzzloeSGE2PiofCUInU5d4uCraxLJ+mhq5rACw778p6cKw/SliujPzw/Bkfqpnsek3PlGa3NrMONZIvMZYRKVkxitLRS+EpT9SIaQbVck4fKp+03aHgVKRsXY5c7w8Cm7KQd7vW3GOSzcZ7pqxJXsGUS+m56O1wUtiAuEjbyLreKPQYzMiZeTA6lFKEOqXpVQh3glzMCFZEOmA8a1P0qDoXMsRXjZJwjdabct+jfo5/PVrdxhcJDkTnDjomn+sM8KVL2ki67eZ9dE5O66U67islicVgUkQ6p+1UiL8TXHtrTHlU/YjFsUPMqpDiyKc+JiwmnFCiPjWSXS51r7GW9w76ikfIpm9biDHtmQDzFgWkv6XGze5denoDykGo8MUqZc6TOEvkR7aBG5IV42kNrpcsVk1+j7oVYyty4hCYxLhpNoDw2sw4f926xk/dmqDqvjLs+ajiKPKOY4lXGTtrhauc2nTwuA5PsQYsRKXtJOoziizlMkRegld7fY9LM6wpNHUohqBi7QCmqymMz7/HR4A6beW9Gx2BYcKb855TaSna53L3JXjYYrpjkE0KMloem7VdZChpEygeGd1moA9phg4ZflQ4QYuw0Ch9Ft4i5me2wnXboZQOKKR3X7bhv7MVXnx3npvpxupHu8NvuNbbzHqHSUiYuRk4raHgV5oI6oS4Dkw8QeAHtSpt6VJdycXFgYptC7tiM99iJd/G0RziFZeNfGnsxY6u+K+k2P+leAWepKpnAJEatbN5a9yNafo1A379i8gIWKi2aQQ0PpAOEOBAWReosN/r3+GT3Gp1pLYIYjryYpaCUFCk78R47WZe9YkDuCrSEJTFqzuEpaAY1FqIWkS5fTDVApEMWozbtoD7MIE9vTlxMEaUpUFzt3eH97UvsZt3DviIx1M8G3O1u0E/75T7ZDAVdMUks2kE7qLNYmSPy7gtMoeczFzVohFUZfyEOjI/GR3El3uBX3cvcS/e+fp9myllnp664Yyfp8PHuVbaTvWF5/2FfkZhVWmnaYZ2lSpvIC4H9PSYd0Iqa1IMaWjoHiwMSKo3DcSW5R64t/zrrYKzB07PVGss5h7EGNHjKO+zLeSRb6R4f7VxhMx0GJvlMEGPiKU0rbLBYaX95xeRrTW24+TQfNKjrUG5DcWAciswabvY2uLZ3i3jGWhRZZynsdA0M3Ew7/L5zlc20g5SIi3FQlO3wajqk5oVUdIA37MOooXyLq3gRLb/Kgl+n5kXAVFe5immidBmYune5sndz5ibb2mHV3jR0Gd9f3W1me3zYu8FW3kVJ2YMYMTf8X6h86l5EXYdUdMjwaG35d60Ugfao+xWWwyYVLyJ2lnwKHiQxCxSJNXzcvcF7u5dnfoDgJOvnA25173J9sMGNfJfYZtSUxp+h1Ko4fLlzxM5S1yHrfpP5sEEtrOLrMtWtoWw66SuPuh+xFDap+hEplkKq88TYKbTS5NZwuX+HDzpX2cm6FLaYqmKBB/qilHzy/zzdtM+1vdvcHGxx1/TJXEGkNJ6smMQIFVgyZ6l7Eathk3ZYp+JHePcHpn0VHbIUNWn6FbkNxYEo88waD7hX9Pgs2eJmb5OdwR65nd4ec/czzpJPyR7TTtrhw50r3BlsgwqGbYiEGAMFjaDGYmWOynD7aN+XAlPNi1itzNPya8PANPlveGL6+cNh3R2bcjvrcLV3hzv9TTIzvV25v6AU1jlyU2Ds5D5PDod1lnvpHu/sXeZWsoOn/S9y/kKMmgJaYZ3V2iJV/wGBqRFUOV5fZTFqouRQnThICkDTNykf713lk72rDIppr84ry6ytcxRmsldM1lrSIuN6UrYgupZuU0MTyN6SGAdnUc6yGDU53lilGdS+9MtfXjH5FY7UlmiHjZk6RyImn6I8z5CYjI+6N/h95xo7aYfc5FOx17R/KPiPr7QcfzHpB4eTImVjsMWNwQafp5vsmQGB0mhJ6osxUQrmwibrtSVqfuVLv/alwFT1I1aqC7SiBkppmb0iDoxCESlNYQt+P7jNb7vXuN3fop8NJnqlAWVQcjDVk587WY9Ptz/nVvcuxhSSLRHjpRRKaZphneXKPNUH7TFFXshCpclcUKemQ0Il+WVxMBTgobDOsmtibiTbfLp3nZu9e1NRBGGtGa6K4KtdEspzTJOdyrub7vHT7Y/5qHsT5dwXBx2FGAcfRaT8shVRdY6KH37l1+8T6gA/8JgP6sx7VXouppjgh0nMIAU4xV7W492tT1kOmxxrrVH5yuboJHE4CjccewF8NTAZa0hNXrYlmlA3kx3+evN9PuvdxFP6yx8MQoxYsD85PWywVGn/0YvQl/5NK4WvPdpBjeOVBep+ldRZzBSnKMR00SgCpemZhN91P+f97nV2016513TYF/cnuP2xF3/iCo2zZCafyBVTUqTc6W1wvXeXu+k23SIelmxIGl+MnsGROkvFi1gL27T8KoH2hz1a/+Br1+ttv8ap2jINv8ZAOkCIA6RRVJTPoEj5be8a7/aus512SIp0avc99nvlmQkMTP085vLOdW50bpMVKTLyRoxT7hwDZ6n7VY5XF2n51a/9uq8NTHNhk+dbx1iMmjhXIOeZxEFSlOmx1DnuJNv8ZuNDrnRuUrjJTYV9PfVFAdGkVuRtZ11+vvMJ73WuYpwhVB7SSVyMj8O5gsWwyfnmMebD5td+1dcGpoWoyfOtEyxFzeGQMHmLEgdNgdLci/f4xZ33+HT36kTv0fxpkz1GZivr8pOdj3in8znWOULlT/DViqnnLDjDctTihdYJFh4nMDWCGscaK7SCWhmYJvRtT8wuTykqyqNT9PlV73Pe7Vzjdm+DXjp9DV4LZ0iKjGKCAmtSpFzbu8Wl3evcSXboFPFE7oGJWVMerGgFVdbryzSCr0/lfW3xTWP4m1phDYVFSWASB0yjiJSiV8S8k+1wpnuUq3u3CLVPI6of9uU9FmMNiUknasUXFymX927wyc5VNpJdBialqkMpExfj5xzNsMZ6fenxAlPkhcyFDebDJvN+E+RmFYdFaVAB1wdb/O3tX+E0HG2tHfZVPZb9Jq6TUvxgrWUn6/GLnU/55d5nJCYj0gFaDtSLcVMadEDzT3R82Pe1ESfUPs2gxmLYYq2yQNWLmOyGKmJ2abTyuR3v8JON9/i4c51BnkzFodv7e+VltsBOQMWbdZa4SLgbb/PbzhXe714jtQWB8qREXIzNfmcUXwc0/QbzYYvFSvuPmrfue+BSaL0yz+vt08yHTWJnKCQ0iQPmK6gqTd+mfJJu8mH3Bh9uXmJrsHPYl/bIrFJYT2EnYEWSmZzP927ywdYlbg026RQxZuqqHcW0KXDEzrAYNPlW+xTHK/MP/PoHBqaVaI6X2idphw0yZ2RzVBw4jSJUmtwVbBQDPune4hf3PuBmf7NsATQFZ5ucckxCCZF1jkGR8OHeVX69/Sl3k10yV0zFyHcx3awrBwMuhg1eb53kSDT3wK9/YGCaj5qcahyhHVTAFlI2Lg6NrzyqOuDqYIO/uvsrPu7dIC3SqXjbt85hnMEdYirP4Shszk7a4x93L/F32x+xWwyIlOwtiYPgwBnmwjrnWsdYjFoP/OoHBqZ22ORkc41mMF1VUGL2lK2KPDbzDr/rXuWDvatc3r1BJ+0d9qWhFGil+cOQiC+vQJyzGFNg7eEFJusc9wbbfLJ3lQ+6N/gs3iAxOb7SsrckDkw7rHOmuc7CUwWmqM7RxirNqAk6kOo8cegSZ9gxCe/vXOaHN3/Fzf69w74kFApPe/j6TwQmazBFhjvEcvHCFny0fYWf3voddwebHH5iUTxbyi4o7bDB6eYR5sLGA7/6gU2E98vGj0TzHI8W6JuEzOR4SsnAZXE4hs1SP+vd5sdOsdJcYb22TCOsE32ldf5BUUoRaB9f+18eYaYAVQ4KdNYc2n5YnCdsJ3u8t3eFX2x/zHbWIVBahoGKsbOAcY5I+7R1hbWwzULUovonysT3PTC+eMPW5KerS7zaOEbTrxFjMLJZKg5JoDRV5XMj3eKne5/w3s5nXN29SS87vI4QijIwBdrny69sw155hxwA9pIu1/Zu887e5/yq9zmdPKaiPDxJ4YkxM84RY6jpiBeiZY6Hc1SCCr72Hvj7HhiYFApPadarC1xoHaMdVCd+RLSYbQqFh8I4R8ek/Gb3Cn93712uDzYpbHEoqxKtNVEQEQURWvGVLujlOabcmgOfcOucw1rLpe4NfnT3d1zq3aFjMwwW2VkSB8HhsM7SCmqcbx7nSG0RX3kPXa0/NCOnlGK1usBzw8CEdBsXEyDQAb7y+c3eFf6vu7/kcu82WZEdypEGrTSVoEIliIYVbl9+PoyzpKbAHHDxg3UWYw2/373CX9/6OZ8PNkAFPMJjL8SIlNV47bDOufmTrNWWHimF/NBBlQrFfNjkeG2Z+aBBpAJJAYhDp4YdHHsm5UayxS83PmTBq/LS4lmWawsHei16uMcUeSFVr0K4395nuHJylG+OB51puNm7y2e713ln5wqX0x0GrqCiPCkPFwdIAZpGWOdE8wgLlfYjRY+HByYF82GDo7Ul5oMGVR08/bUKMRKODMNm1uMX935P1cJqffHAA5OinPwc6TIwRXoyxsB/3rnF31z9Gb/rXOaW6VNVPlX14Ny+ECOnPBpBnWONFeYrrUdaMT08lYci8kLaUZMTtSVOVZcJvJDE2QPPmQvxZYoQD43jarrJrzuX+fXGR1za/pxBnhz41dS9kFPhAqtBC4MiGz4fZSovP7Amrp20x5Wd6/x25xL/sPsht9MdKsrDl5WSOCAWR+IsgRdwqrLAyeoii1GLml95pN3Nh66YAEI/pBXVOVFb5lRthQ0Tk+YDfLxys1eIQ6Aoq/Sss9zMdrA9x5nNj5jzqrSiJhU/OtC0VU2HnIzmuRI0uZ53yZ0FFMZaMnswgck5x3ayx0fbn/O7nc/4efcSVV2h6j24PFeIUbIOUmdp6oDT1UVOVRdZiJpUvUc70vFIgQnA1z7H6ss81zrGR/FdwDDp0znFs0EpRaRDBibnx7ufYD2fhfoigfZpRQ28h5SmjkqofebCJq2gjndfEcR+ZdK4KwYLU5AUKe/sfs6/v/kTPuhco+ZV8dQjP+ZCjIgDDG2/yvnmcU7UVggeI4386IFJeRytLXOuuU5z6/2yb56SVJ44fApFoHwya3i/ewOlPS40j1P3Kzznh1RV5UAOk4Y6YClqMxc2vhyYnD2QXnmDIuFuf5N3di/zf2+8Q1ok1CZkv0s8axw4S9OPeL65zrHaMr5+9Bekx1gxeaxVFzjVPEIjqD3RpQoxTlopIu1zN9njf7v1U7ZszL+rtDha8/E9f+wnd2p+heONVda6CwSK4cubh3GW7AD2mK737/H/Xf8Zv9z4kNTmkswQh8s56n7EifoKq5V5/MdoaffIgclTmrmoyZHaIqvRHPNBncJaDE4O64mJoIaNXvfyPj/b/oSqX+HNudP4KNbqS3h6vHdqxQ9Zqy+xXJ3DVx77KyaLo3BmbOMlUpPRzfp8vHuVH959lw97N7HO4stTKQ7Y/kBApTRNP2I5bHGktsR81EQ/RmB6rJN2WmmafpWXW8d5pXmSyI9IpROEmDjl5NirvTv8xys/5Od33yMuEpwd730a6ID5SptWpYXnRcB+cBrvz92Kd/nHm7/lx3fe4YP4LtsmJlKKQKrwxAFzOFJn8XXIc/V1zjePslhpUwmix0qnP1ZgUkpRDypcaB7npfYJql5Y5s6ld56YIEqBrxRbaYefbX/EL7Y+4sOdz9lIxjv11tcejbDGfNhkOWjS9CIU5ciJnNEfr8htwXa8x2d7N/jpxvv8eucS9/IuqSvwh62bhDhIjvJ4RNULudA8zvnmcVphvWxw/Bj342P3Jql4EefaxzjfPkHD88HmSIsiMUk8FJXh1NtreYd/2v2Mv7r+j3yw+/lYf67WmtAPWQobvFhZ4rjfxHdQYIkxFCMufhjkMZ9uX+EX937Pj3c+5OPBbXCOSElIEofEOXAFTT/kpblTnG+foOo/fgHOYwemQPusVRc5UV9hOWpR8yIsikISemJCKBiuFhypK7gab/KTzQ/45eZHfLR1ma14d0w/V6GVZj5s8HzjKOvVebQCY4uRFj8YZ+mkXa52bvOPmx/ws+2PuBZv07PpsAGMhCVxOLRSVLTPwnDu0rH6CtETdAt67AMOvvZohw1WqwusV5e5HG5wL+/jnKUib2pignhoqkqxl/f4Td6lca9C3Wi+s/4qi9W5sf3cZljn7NwJPo7v4u1dGg4KzLEjGhSYm5zb3Q3e3brEf773O367dxnjLJEOJSiJQ+UpTVXXWI7mOFpfZqk691jnl/Y9dmDa7ws2FzZ4oXmc2/EOu3tXiItiOOFWHgwxGcoSCEXuLJkruNS/jWctXhhSD6qs1BaZrzx4xPOTaAY1TjWOsFJbwNN+WZU3gpEczjn6+YA7/S1+vPE+P954j8uDu/RNRqR8ac4qDo0DCmeo6pCT9RWebxxlPmwSPsbZpfs98ZHwVlDjlfZp7sY7fNi9QUz8pN9KiLHylYevNDfTHa4lG1T8CnUX8NaRl8cSmBp+lVONVZYrC+hhqtu44qlHclhn2Yn3+GTnKn91+xf8w+b75ciNx9xYFmLUHI7MGWpKc755jFfaJ2n51Sf+fk8cmGpehdONI5xurNH2q3TyvjwaYiKp+/5uHXzYu4lWCutrPKVYrS/Rihoj+3mB59OMGpysLfNm/TgmT9gtBiQ2f+Lv2c9idpIOf3/3Hf7h3rtc6t+hcIYALSslMREcEPkRpxtHONc8Sv0h49Mf5MkDkx9xqrnGyd4a7aDOvWQ8G8pCjEqgfALP59P4NpeTu1S0T0sFhF4w0sDkax8/9DldXeL7zdN83L3B5cGdpwpMvbTP9c5t/vrOr/gPt35GVQdUpN2QmCRKU/EqnGoc4VxzndphBCalNKEXsFqZ47X2KXKb89ngHsZawsc44SvEQfNV2RPhd91rGKWJPUXmLEfqiyNtt7VeX+Z7628wuGN5r3+D7AnKxbtpn07a5W+GK6WPujeJlI8nU2jFhMicRWnN2eoqb7RPc6y2SC2oPlXz5CcOTFoptBewUpnj9bnTbGZdPok3yCnTC5JcEJMqUD4Oxwf9W9zIdqkFVWpehcgLqHgRntIjafq6Vl9iPmrxSXIX7v0W9RgvbM45LI7tZJcruzf5f+/8hv/91k+pKZ+KDOsUE8IBOY4Azbn6Km/NnWG9ukAleLoxK0/dD78dNXhx/iyX4k3C7Q/JTfa031KIA6AIlY+xlp/vfMLApAzyAa8vnONEe536CFZOnvaI/JBvLp6Hc/+S1xfOPfLv7WcDdpI9/v7uu/ynO7/i4+4Nasp/rEaYQhwMR+B5nG4e4aX507TDp0+LP3VgagZ1nmsf41T3Ki2/Sl5kw6O2UickJlc5ZNDDOsuH3etspXtUncJzjkpQYa3uEXnhUxUWaKXRnualuVOcqq1SDx9epWScpTAFdwZbfLp7jR9uvMf/efsXVJRPRcaiiwmy37DVV5qmF3GqscZz7RM0w/pTf++nDkyB9mmFdY5XFnm1cZwPnOJ6so2Pkr0mMfEUECmf2GT8ZOdjOiYhNjmvL53n+YWTVJ9iA3df4IU0Qo3vPfxx66V97vY2+dHGe/ynO7/i0/5tasrHk2dJTJjcWXJgNWzyfG2NY9UlFqLWE3V6+KqnDkye0lS9iKPVRd6cO0O3iLkcb4DShLJBKyacQuErj9waLg3uEJuUEA+LoxpErNWWaIT1p1o5+drDf8hGcGZyevmAq53b/H7rMj/aeI+/23wXY63sKYmJVGApnGO9Os+r7ZMcqy3SCJ787NL9RjZzebW6wHdWLnIj3ebHW+8DHshIZzEl9HA8e8ck/GTnI7o2IckTvrHyIq+tXCD0xhscdpIO7258zM83P+RH2x9wNd5Ao9CSvhOTyhm0M1xoHuUHq69ypLo4sm89ssgxFza4MHeS0ztrLAd1BrYgx+EhTSXF5NtfOWXWcKPYhj3QxpHjCP2Q9WHfL6XUyHZPnXMkJmUj3uHDnc/58d13+cXOx/yme4XEFlR0eCAj4YV4HBaHoUyBV/yIs80jXJw/w0I0ui4qIwtMFT9iUXucqK9yvnGcy/EWN9M9IqWJ5OESU8JTmooO2Sliftq5xK6N2Rhs8Wfrb/Dnx76Bp72RBAuHwzrLZrzLD2/8mp9uvM8/dS5zO93FOUWkAikfEhMpd+UwwLWoycnKPCfqq6xVFwiesC/e1xnZd/KUxvNCTtZX+e7yRfLN33M12SRUAU8wXUOIQ6FQeMqjcIZ+kfJx7zZJnuI8D6U1p5rrHG+s4mvviQ4QOhy5KehlA672bvP+zhX+/t67/G73MlezbRJbEGlfsgxiYjkshcs5Wl3gWwsXOFlbfaKZSw8y8k2gU/U1/sX6W9xMt/jJ5jtlx3HZaxJTxlOaKgF7NuWd+DZ7d1M+3v2cf3Pqz1gIG9TC2pMFJucYZDE3Onf46xs/5Yf33uNSusl2PkDhJCiJyecM2JSz9VX+Yu0NTtRXRv4jRh4x2lGDs+oo5xrrnK2t0TUZfVPgKxn1LKaHQqGUwjhLhuFmsks3G1C9+1t2bMor7dM83zxKq9J4rJJy6yx3+ht8sHOZd3Y/58PeTTquoMASKU+CkphYBkfhHBUvYiGocbaxzvn2yZHuLe0beY6t5kUsV+c411jn9dYZ5sIWsTOYp5xFI8Rh8JWmpnwSZ7heDPiPd37N//Txf+D/uflPXN29SS8dPNb3K6zhWvcO72x9yqXBXTZMDDgqSlZKYrIZ54idpRE0ON84xtnGOscbKyMrEb/fyFdMSik8PE7W1/j28kts2IRP+3dxckBQTKH9kRkeECiHsQW7WY9/3PoIB/yrMGCu0sTTHvoR7nGLYyvb48Zgg26RYFT5/SUkiUnncDhnOFpd4HvLL3O6sfbQ83lPamybP8cbK3zHXeRXnStlThI5jyGmV6AUAR6o8gH9+e4nXEu3uDB/iotzp4iURj9CdLHOspP1uJ1uGMibugAAIABJREFUM7A55XMhYUlMAweu4HhtiT9ffY3TjSNj+0ljW8Y0gzrH6ss8X1vlQmWFuo5InMUgKT0x/ZwzFDYjLVLSPMVa89DfY52lsIbYZMQmQ+OoKI0ncUlMMIMjcZaKF3G2tsrZ+honm2u0RzjD7KvGFpgaQZW12iLP19Z4qXaEhl8lkb0mMSucxTlDVqQkRYZ5hLHp1pYNWgcmpW9StHPlSktWTGKCGedInKHuV3mufoRzjSMcrS/THOHssq8a68aPVprn50/x/fU3OFKdB1eArJjELFAaiyIxOXGRPFJgSk3GXtrjXt7hdtFh4J58oq0QB6dM4a1V2nxv5SLPtY49Ve/IRzHmwKQ41VrnrdWXOFFfpq59PKWww8EYQkytLwJTxqCIMY+QykvylL2ky2bWY8sMSG1xABcqxJPZH2uhgZr2OF5d5K3FC5xuHEGNuWnCWL+7QtEIaqzXlnht7jRvzp2lEdRInMFKaBJTzjlHXCT085jCPTwwDYqY7WSPxGSABmnVJSaYHe4t1fwqLzVO8HLrJKeaa8xFzbH3cBx7S4aKF7JYafFy+wybyR73igF30g6B0nLgVkwxhcHRyxO62YDiEVY/vSzmXrxNXGQSlMTEs86RO0szqPN6+wwX26dYrS5QH8GMsoc5kMNFoQ54af403155meXK3EH8SCHGSAEa42Av77OddsjMwwPTXtbjVn+TvknKVl3yYiYmnTMsRy3eXrnIxbnTIxkC+CgOpImdrz3WaoucNynPN49ytXeXbtansAV6hGMEhDgwCizQL2I6eZ/CPTwwdfM+d5NtBsUwlSf3vZhAZed7R6g95sN5zjfXeXHuFEfry2M7UPtVB7Ji2u/YvBA2+O78Bb6/8AKNoELqcqyUj4sp5ZwjNRmJebSqvH6RsJXu7zFJUBKTyTpH6nJqfoW3Fy7wncULrNYWqPjRI3U3GYUDa/utlaLhV3l57hR7WZdP+zfZyfrDCj2HJ+smMVXK6tLEZPSL9JGKH3ZNzM10l8RmBEqPveRWiMfhKA/TWsBTHstRizcWzvHK3BlaYf2Juuk/qQNtYFf1Qs4213l5/gyn6qvMhw0KFJmTGj0xfaxz5WHZInmkcvGdYsC1bJvE5mXHB3kVExPEAZmzZEDNq7BeXeTi/FnOtY9R9UY7b+lhDjQwaa2pB1WO1pf55sJ5LrZPUvVCrLPIwVsxbYyz7BQxm0WP9AErpsIWxHnCbt5js+iS2kwyBGIClVOVq17AxfZJvrnwPCfqKzSDOp4+2CbcB/rTFApPeyxHc3xv+SLfXrhA048ot5GFmC4Fli0z4E7RI3lAuXhW5PTSPntZj928S2ql44OYVJaWH/H24gX+fOUVVitz+PrgX6MOZRZF1Y84Xl/hxfYJ3myf5mR1CQvkj7CBLMQkCFAEwMDE7BZ9Upth3df3NMltTj8bkJocM9xTFWKS5M5igPVonpebx7k4d4rTzSPUg8qhrOwPZeZ55AWs1OY53zrGt+efIy5Sbmddclcg49LEpFNAqDTGWWIT08l7pCbDWltuEH/lBs5NQS8bkNsCKRMXk8YBGQ5PaU5Ul3mzdZoLreOs15cPLeF8aNP7FIrlyjxvr7zMxfmzRF6EPLBi2jjKcRZpkZXB6WtW/XGRsp3sEZtMDtaKyeQMkdK8tnCOPzvyOqvVxUPdBT2UFdO+xUqLufAFPos3ad36BWmRUj7q8uCK6WGdIzMZaZEReuEfjcSMi5StZJdEDtaKieTwFbT9iNcWz/KdtVcI9aGGhsNbMcFwDLv2ON9c598d/z7fXDhHZnOyRzhFL8RkKM8zxUVGUqRfu2IaFDH34h36RVL2yJO4JCZE5goym/Na+wz/5uh3ea6xTqC9Qz9jd7iBCYVWmtP1Vf7l+lt8Y+4MkeejQUZjiOmgFMZBUqQk+dcHptikbCa7ksoTE2N/pAU4PK15de40f7n2Fqfqa/jq8A8zHGpg2tcMa5xqHuHi3Gm+M3eetcoCA1dQSJWemHgK6xxxnjD4EwMDc1vQL+Jh8YNCApM4bIWzDJyhHTR5oXGMl9qneGH+JHNR87AvDTjkPaZ9FS+i4kVcaB3n+0svkW3C58k2BofGoQ89fgvxNZQqV0w4BkU6DEx/fNA2Nhnbw/NLHnoy3gbFM81Sjkw/Wl3km3NnudA+wXp9+bAv6wsT9YycqK/yF+tv8fLcKeb9Kp72iJ2lkEavYmJpjHP0i5hBMcDaP14xdYoBnw/uERcxNeXhS488ccgCpagpj1fbp/nvjn2Xc82jh31JXzIRK6Z9C1GLhl/llc4ZPty7xof921yNNwkU8Ee1TkJMAFUWPwyKhEH+9am8vSLmWrpFzxUEEpTEIbLDtkOLYZPVyjyvzp/mtcXnqAXjH/73OCYqMHnaI1KK1xbOYp3l39/4MVcHd4cbxkJMJuMsgyKlX6RfG5i6NuV6vouvAzw1UY+ceMYUzpCalFP1s/zl2lu8Nn+ORnjwvfAeZqKeEqXKuU1Ha0t4SvNJ7wZXe3fYzXv0ixRPaekLISZO2QEiJTFfrsqzzmKdJbEZPZtRU5qqBCZxCCwO4yxVHbISNrnYPsl3l1/iZGOVwJu8e3Lyrghohw0iL+RbC+fppX1+tPUBH2TXqeoQrSSlJyZJWZWXmIzEptj7GhIba8lMRvEIIzGEGCfjLLHNOVKZ5xvt07y1cJ4XFk5T8w92nMWjmsjA5GuPmoq40D5BanJupjtcjzcpnCNzDl+pyaraEM804yzdYkA3j780MDC3ZVfxtNifWCurfXGwLFA4h0NR0QGnG2v8+drrXJw/QyuoHdhE2sc1kYEJQCvNmdZR6kGNd/au8EHnGneyHgOTovEkpScmhKJwlk4xoFP0Ke6rysuLnG7aKwPThH4AiNlmcaQYAuXT9iLOt47zF0ff4kh1cWKDEkxwYAIItM9c1OCbSxfoFDF/s/E+l7q3cRKTxATQKEIUyjm2igHvd2/wn2/8jLWtRQB62YC9pMOlzk0qOsCXNLQ4YA6HdY612jzfX7jAt5deYDFqEXnBYV/aA010YAKoehHfWX6Ril/ho/5dLnVvH/YlCQGUiblIacCxWfT57d7nbAy2qavyoU9dQWIytmxCXU9mLl88Cxwnakv86+Nv88bCuQMfk/4kJj4waRQNv8bp+ip/ufo6VeXx7s5nbGUdAiUpPTEZHNC3GVezPbxhikThUM6RPGDsuhDjYHHktmA+bPDdudP8YOVlzjbXaYeNiU7h7Zv4wKSUouZHHKst8S9WX6OmPG7HG2xkezjncEraFYnJEFvDlssww/bDkdLUlCf3pzhQDnDOYTEsRk3+q+VX+MHKq5ysr9IIqod9eY9k4gPTvlD7rNUWuTh/mn/Wf4WKCvi4d5PYZIQT0A1XCE9BFf1FwbiEJHHQHI7MGSo64PnaSb69eJ5XF85xvLEy8ftK95uawORrn8VKm+fcMX6w9BK5ybmVbBObDIuMXxOHT6MIpeWQOCTlKIvyn3W/ymtzZ/ju0ktcmDvJSnXhkK/u8UxNYNrXCuq8sniOrkm53L/D+51r3M16KGcJlew4CSGePQ7InMUpWAqbvNg8xndXXuYbyy8wFzYO+/Ie29QFpqofcaKxRiePudy9RWILdnavkJpsOCZDDt8KIZ4dlmHLIRyBCjhTX+Othed5bfEcZ1qT1TX8UU1dYNp3tLbEf3Ps22jP51a8zc1kh77NCVHDEl4hhJh9ubNkOHxgMajxg5WX+W/Xv8nR6tJhX9oTm9rA1A7rvDh/iu2sy5XubX69e5kPujcxOHIcHkgpuRBi5hkcBjhTW+G1uVN8c/ECF+dOE05RscNXTW1gUkoR4PNC6wT/46n/kubNGjcGG/RMRmwNkdJEshEthHgGBNrjB6sv898fe5vzreOEfjjVL+bTG5hQKAVLlTYNL+J2ssO1wT3e69zg4/5twin+jyKEEA9jnMXgOF5b4lTjCG8vvcjrC+do+NUvDnlPq6kNTPsC7eOFNd5YfI6aH/G/Xv8RH/dvHfZlCSHEWBWUoyxenzvDvz32PV6aP81cMB2dHR5m6gPT/nDBleo8ofa5Gm+ylXa40rvFrcEmvvLwpHmmEGJGGGconGGtssCJ+ipvL73AGwvnWKi08fVsfNZNfWDaV/erVL2IP1u+yJJf43+5+rd81r1OzatKYBJCzAzjDLGJOddY5X84/me8vvg8xxorU5++u9/MBCatFFp5HKkt4ivN1cFd4qI8hHsv3cNXwUz9hxNCPFuMsxSuYDFs8mr1FG8vvcSbi+c5Ulsk0DPzUQ7MUGDaNx81aQV1/nzlNaqE/B83fsjVwV1qnpbAJISYWsYZYpuxWpnjn6++yfeXX+bF+dN4evY+12YuMCkUntYca6xinGW76BF5EZ/2b7OZdgmVj5YyciHElLDOkbmChbDBG7UzvL38Et9bfYUzraN4Ss9kA+uZC0xQBqcjtUXmwgaFNYQqYO92wr20g8WVpeaHfZFCCPEQZWNWh8GyFLX4wdJFfrDyKt9aeZGaXznsyxubmQxM+wLtc6a1jsHRNTFNL+Kj7g328sFw5TR7S2AhxGywODJb0PSrXKwf59uLF/j+2qs83z5BqKe3q8OjmOnA5GuP9foytaBKalKUc2xnXfpFUg7TGq6ehBBikrjhX1ppFqMmb80/x/eXL/Lm0nkWotZhX97YzXRg2lfzIl6cPw1KEZuUf/I+5qPeTWKTE+lAgpMQYmI4HKktiDyfs7VVvrHwHP/FkTd4Zf4M9RlO393vmQhMoRdwrL5CoDwGeYxzjr1iwO1kh8I5FNLwVQhx+OxwpRR5PsthmzfmzvK9pZd4Y/F5jtaXD/vyDswzEZj2taMG31h+gdALAfjlzqe8171ObovhykkIIQ6HAzJboJXmbG2VN+bO8l8f/SZvLD7/TKTv7vdMBaaKF3GsvgJAZjKU1vRsxr1kl36RlkMGpZRcCHHArHNYHE2/ymLU5BsLz32xUjrVPHLYl3fgnqnAtG+p0uY7KxepBVWqOuRn2x/xs+1P0CgqararXYQQkydzBQbLxfpx3pov95SexZXSvmcyMFW8iEot4kVnwDmcUnRNyr1kh+20i6c86RIhhBg74yzGGRbCBktRqywJX77IK/Nnnqk9pa96JgPTvpXKPI2VGpEX0fSq/O293/L3g7tUvQqeig778oQQM65wBbHNeKN2hh8sXeT7a6/y5tL5Z6b67k95pgNT6AWEXsBzraN4KBKX0i9ibic7bGX7KyfpTC6EGC3jDMYZFsMmq5U53l5+iR+slIdnn9X03f2e6cC0b6W6wHzUAgV1FfHXd3/J9fgeVRmZIYQYg2I4uuLV6in++eqbfG/1Fb618uLMd3R4VBKYKDtE+NrjdHMdhcJoaAY1Pu7d5ma8A5T99wKl5LyTEOKJGWcpsKxVFjjXWOXtpZf4/vLLnGkdnened49LAtN91utLrFYXWKy0OVNf43+++nd8MtgAFAEarTykJEII8aQMjtjmnKiXQ/7eXDxfjq6QYqsvkcB0n/2RGSvVeV6aP8O/KgYsRi1+vf0Z1wcb5M5iUQRKS4ASQjyUBXJnMTgAjteWeH3uDG8vvcDri89zpLaIp2dzdMXTkMD0FQrFQtSiFdRpBTVOVpfIipSddI+OychweDI6QwjxEPsjKzIcBgi0x6nGEf7tse/xxsI5jjVWZm7y7Kgo55w77IuYRNY5+kXMvXiH32x9ys+3PuIfNt7nSv8uqc3RQDijQ7qEEE/HAdlwpaSAE7UVfrD6Mm8vvci3Fp7nyP/f3p3/xnVdBxz/3vv2mXmzkiNuEkmJomRLlmwndly7TfNDgyLoLy3Qv7M/Fe0vAZq6DYIEjV3HThU52heKOznr2+/tD29IySm8VJHF7X6AwQgkh3hDzbwz591zzwnahE5gRu98DROuv4YUgtCpULE8pt06s36LQTYmLVKeJnukKkehkWCCk2EYhzQaBWgBjnDoOBXebi7xjwsf8k57haZTw5am2vebmIzpW2ityVTOdtzjVv8Rv9m5zS82PuPOcI3NpAeAK2wTmgzDmGRKORqYckMuVmf4cfct3u9c5Xprma7fxJWO6cn5LUzG9C2EELiWw0ylQydo0HZDVJHjS5sv+o8Y5BFZkSNMKblhnGkKjdYaXzpU7YA3wwXea6/yd3Pvc725jGu7pvruOzIZ03ekJy+6Xjri6Xibz/fu8ZvtW/zX3h0+6d1DIvCEifOGcVYlKkNRcD1c5O3mRT7qvsXbnRXmgymabg0pJMJkSt+JOZN+RwKBEIKWF9LyQupOQGh5OJZDrDO24h572ejwZyXClJQbximmeJ4lgabl1uh4IR90rvDR1DV+OP0GF+vzR32YJ5IJTC9p2m/xXvdNmn6di9UZ/mXjt/zr+qcwmenkYeGaT0eGcWrlWpNQoLQCrfioschPu29zs73C1eYiTbd21Id4YpnA9JIC2yOwPWxh0XJqjHVOpAuejLdZj/ZQKifTBZaQZu3JME4RhabQCo3AETYzQZMLlQ4/7t7gx+ducr7WpRu0j/owTzSzxvRnylVOqnKejLe5P9rgn5/8ip+vf8Jm0meQRwTSwTGNYA3j1Mh0QaQyfOlQtyv8dOZd/mHhQy6FsyzWZvAsx2yc/TOZv96fyZY2trRZqEzTdKvEeUxoB/y+94A7gzV20gHjIsEWlsmcDOMEU2hyXRBIl1m/xXJthiv183ww9QbvdlZouDVqTnDUh3kqmIzpFdFao9BERcJeMuDf1n7Lv69/xn/s/YGH4y0C6WCbzMkwTqxyVEXM+WCKD1qr/GTmHf5m/j06Xp3A8pBCmv1Jr4jJmF4RIQQWgpod4EqbdzureJZLq9Lki94DHgw32E0HxLpAaLCFyZ8M4zjTQK4VCnCEoOOGLFUvcb2xyHvtK1xvXWQ26OBZZobSq2YC0/fAlQ5vtpa5UJthtb7Ar7dv8U+Pf8l+NiJRGQKwTBtYwzjWNJoERaE1EotzfoufzbzHR9PXeKO9TN2pmF533xMTmL4nUkgC22O+Os0PtcYRNlf37/N57wGPo222kn1yynZGhmEcL6nOAc20EzIfdLjZWOZma5m3Wyss1s5RsT0TlL5H5qz4PXKkXY5td+tcqs1yJVygafn8avcWe2mPVBVooWGSOZn8yTCOjn7hX1orLClZ8Ju837zE3y98xNudy9TcKo5lTpvfN1P88BoorciKjO24x8PRBrd6j/h8/x6f7t/n0/27ZFqDkLiTIYSGYbxemVakaNAKWwjebixzs7nEtcYSVxsXWAnn6fpNHMsxmdJrYEL/ayCFxLM95mtd5mtdLoZzrIbz+LbP43iHfh4TqwImlX2lcgXKZFGG8eppDjKkyftNCCwh8aRLw/b5UecqP5v5IW+0FpmrTh/dgZ5RJmM6AuM8ppcOuT/a4MvBU363d4/Pd+5yP9rgSbwLSKSQuEJiBmoYxquXo0m1KtsJoZjzWlwIprnZusTN9kVWw3mWa7M0vZCq7R/14Z45JmM6AhXbp2L7TAct3mlfZimYoi09qvs+hYBeFjMuMpTWFGikMBV8hvEqaMrp1AqNQhDYPnXb483wPD+oL/NXMzf5i+51XMvBMWXgR8ZkTEdIo1Fasx3vsxnt8eXgKbd6j/h46ws+27/PuIgpdIEnHDPHxTBegUIrEp1jCYuK5XG9sciHnatcby5xtX6ec0GbKb8x2Sxr3nNHxWRMR0ggsITgXNCmG7To+i0uVKaxhaRiuTyNdthO+wyzeFK+ymSchsmfDOO70JSthNTk87cjLabtClNeg/mgw/vtVX7SvcFyOMtcddq8s44JkzEdI0mREeUxG/Eej0db/M/+Az7Zu8PHO7d4HO3ApGrPNx3LDeM7UWhirci0Al0w77f4UesyP2hf5kZ7hQvVc5zzm1QdH9/yjvpwjQmTMR0jnuXgWQ6hU2HWb9NxQ5puiOv43B48ZTPap58NGWcRKQomGZdlgpRhHCrQFJPhfRKo2z51p0rXq7MazvFB+wo3mhdZbV4gdKrY0ryDjhuTMR1DGo1SiqhIGWZjtpMet/Yf8cuN3/Hb/Tt81r/PWBUgbHxh4Ztr4YZxKNaKWBegcwJh8UZtgZvNi/y4+xbXmkt0K20abo3A8rCkuTB+HJmM6RgSCCxpUZMBFduj5YbULB9fWnQrLear0zwcb/Ms3meUx8RFPHmUyaCMs+cgQ9KT3UmB5TFl15nxG5wP2lyrX+BafYkbrUssVKfxbQ9Lmk7/x5nJmE4Arcs5MEmRsRXv8Wi0ya+3bvHxxmd8OXrG3fEmCAshLAIh8UwGZZwhiVZEWqEnWdKlyjkuV2f5y+513utcZSmc4VzQxpMOtrRMtd0JYDKmE0CIcoSzI+2yOazl4Uibab/BneEz7o7WeTze5mm0yzAbEhdJGaiQOEKYQgnjVFFoMq3RlAUNnnRpunXm/BYLlQ6rtbKzyuX6gtkke0KZjOmE0XDYukhpxdPRFg8H6/xi47/5z63PuT18wpN4B6SHLRwCaeGYwGScIhmaSBXkOgOVMOu1uFSd48Opa/x19y1WGudZCmcnG9MlQphVpJPGZEwnjICyrxdlb6+O3yjHtkvJcjjH3eFaeRtt8DTaZZAOGeschIWNxDEDCo0TRlM2Wc0nGZIjJG2nwqw/z+XaOVbCOVZq8yzXZliqztD26zjSnNpOMpMxnSK5Kng83OR27yE/X/+EX+/c4s5ojd1sjBLlaHf/hUt7JkAZx9nBianci6TJdIGlM+q2x0LQ5f32Ff525gdcby2zXJ83wegUMYHpFFFaMcwidpM+j0abPBxv8Gi0wd3BM/4weMpatMdONiDXBQAOFq5ZCDaOoVQrMhRojS0kHTdkzm9zOZzlYm2GhWqXxeo5FitdpvwGDbdmihpOEROYTrEoT1iPdvli7x4fb3zGZ72HfDleZ1DEZEWOQGP9n/99M27DeP3KQu/nL8YCgRJlp5O67bFaneVGfZGPum9xvbXMXHXaFDScYiYwnWK5KoiKhN2kz7NohyfjHZ5E2zwYrnN/sMad0QZ3x1swaf1vxm0YRyXTBakuytAkJEvBFMtBl5X6PJfCWRYqU8wHU8wEbdpeSNUOsM1epFPLXJQ9xWxpEcoKoVNhsTZzeJnvj71H/N6/T925RyEskiImLhLGRUaiisNxG4iD7MlUNRmvxkFmdFBdKicD+gLpUpkM1PQtn3fqF3i3vsiN9mXeaC3R9urUnOCIj954XUzGdIbkqiBRGYN0RC8dshbtllnUaIMHow0+7z3k7midcRGRqhyEXU71FNJ0kzBeiQJNohWFVqBzfGkTWhUWq12uhOW+o6XaLHNBm9mgRcsLqbu1w82xxtlgAtMZFmcx4yziwXCDe8NnfLp/j1uDx2wl++ymQwZ5SlSk5CpFazV5VJlDSYHZuGt8o3KvHbw4yFwIiS1dAssltF3abo1pr8lqbZ4bjUVWwnlWwjkqToDvmDWks8oEpjOs0IpCFUR5wrhI6GUjdtMBT0db3B884/f7D/jD4DF/HK0xyBMQAoQELLzJ+A3D+DqxViRaAUW5jqk1oe1xuTrH1fA815pLLIezzFenabkhdTugOpnubEnLDMc8w0xgMr4iVTnb0T5PRpvc7j3iy8ETvhytsZX0GWQxgzyml0ekKiMrssmjNC82kTWnk7NFwVeaqJYEjuXgSoeGHRDaPqHjM+3VWa3OsRoucKVxgYVql6mgiWv2IBkvMIHJ+AqtNZnKSVRGlCcM84h+OuTpaJt7gzVu959ye/CY+9EOD+Jd0AWgQJTNMQMsHGEu8Z0lmdZEFKjJMD6QZWWd32Y5mOJKeJ4r9XkuhnPMV6eouzVqdkBge3jSwZE2wrxmjBeYwGR8I6UVWZGxG/dZG+/weLzJo/EmD6IdHkY7DLMRw3RELx3Rz8aMi4REZy/8BoGclJ+bU8/JpoF80qORF/YcOdImsHxCO6DpVAjdKnU3ZDHosBR0uFDpcr7SZa7SKdsFWY7ZDGt8IxOYjG+ltabQilwX5Con0wW7yYCdpM+T4SaPBs+4s/eQ2/3H3Io3eZb1ywcKAaLsLhEIyxRLnHAKTaQL0oPMaFIQM+3WWanMcDmcY7W2wMX6HMv1OTpenbYX4ggLW9rYolw3MtmR8W1MYDJeSlSkjPOYvbjPbtxjfbzNs/EOj5M91tPeJIMa0c8jdpIBW2mfTGWTk9lBEQWAwDHDDY+NYjJS4jAjOsiOhMCWDh0npO3WaDgV6pPbOb/JQjDFrN9mJmgx7beYCppUbJ/Aco/y6RgnlFlxNF5KYLn4lkPLrbFcnzscZhhnMbtJn/uDZzwYrvNw+IxPeg/YzIaMVQYqA2kBFmXBeXmzzKfoYyHXuhy6x6QbiC5AFSAtQulwqTLNzfri4X6jxeo5poMmoVebDOEri2CEMNuyjZdnMibjldFal22Q8pj9dMheOmA/HbAW7/Mw2mE37TNIBwyyiH4WsZX02Un6jPKIuEgmow00HLwkX1iHsCdDD82p7uWUoyN0OTri8IvP14psIXGEhWe5+JZHx60z7dVpuhUabpXQrdFy65z3W8x6TZpuSMsNabo1Ko6Pa9aNjFfIBCbjtdmJe6yNt1kbbbM22uJW/xG3B094HO2wnvYYqYxE52it0Bq0kBzszyzXqcpVKj0pT/86Zy14ffMbWCMQaCDSqlwfEiDQCK3LewSetKlIl65XZ9ZrsRrOczU8z2I4w4XaOeYqU3T8xut5QsaZZwKT8dpEecIojxhm5W03HbCXDujnEf08Yi8d0ktHDNIRe+mArbhHPx0xziPGRcpIpaQ6K9slQVlcgZzcPw9HFgL3DIyUV2jSg76GLzrIhCZrRa60cYVDVbpULJeKHRC6FabcOg2vRuiUWVHbqVF3yt6KLbdG2w2pO1XqboXqpLzbMF4HE5iMYyFTOdtxj+1on614b9J9Yo3NaJf9uM9mNmRZFoVRAAAC2klEQVQtHzAqYsZFTDFpd6MEFLrMGpSGAoXU4B1s9H3x5f3/WMd6HSskfzrq4dsf8NXnooBEa5QAC3m4vmMJkFojRbmSV7F8qpbPnB3SdWo0/TrTfvt5JhQ0mfIbTHtNfNvFMj3pjCNmApNxLCitiIuUOE+JioRRFtHPxkR5TFpk9LIRe+mQUZEwVin9yd6pXjZikI0Z5QnDouxKUWZgMZlKQeflCf0wq5rcyhn1f5JtPQ9FNgJXyO+ti4WiHIaXfyUw6ef3B5Vx+sXvqefPRdg40qVu+9TtgIYdULN8qrZXZkBOlbpbpeFWqUiXquXRcms0nCqu5RBMfq5i+/iWh2+X/essYZlybuPImcBknAhxnjBOI2KVEquMnbjHTtxjO95nN+nTz8fsZyO2syFb6ZD1dEBUxFAkZU9ANIUuL39pfdA8p8w61GSfVpmFlRtIy8D0vFFtcdAR+yUIxGE2IycnfQXkQDH5vhAgJ13cLfFiCC0r3CRgCSbfl2B5BJbPjBsy7daYcmo0nSp1u0Lbq9PxG3T8MhPypYMvXSpugG8uxxkngAlMxolQqIJcFSjKAJEUGUmRlvcqI1M5qcpJdE5cpIzylFSlFCpnnMcMsohRHjPK43KTsCrItSJT+eTrEcM8JioSkklLpkzlqEkV2yhPGObxSx27I21cYeNZNs7kMpklLEIrILBcJBJX2lRsj6rlEUoX27KR0saxbGxpU7V9qrZP6ASTJqc2rnSp2i6+5eIJG1faONLGkw6u5ZRftxwsIZFIbGmZy3TGiWD2MRkngvUnJ9Wa8/U/qyZd03NVdqropSN20gG9ZEAvHU6CWhl44iKllw3ZTwfspUMGecS4SBgWCYMiPsySMlW89LFLBI608KSDb5UH7gqbc25Iw66Ug/Isl7pToWlXaFkVPNvDsl1cuwwuDbdGwwvpuCENt1p2Upj8TUyZtnHaiKXlFZMxGYZhGMfG/wJ+6E3iqFH9wQAAAABJRU5ErkJggg==;" vertex="1" parent="1">
          <mxGeometry x="722" y="277" width="39.9" height="40" as="geometry" />
        </mxCell>
      </root>
    </mxGraphModel>
  </diagram>
</mxfile>
